<svg width="559" height="486" viewBox="0 0 559 486" fill="none" xmlns="http://www.w3.org/2000/svg">
<path d="M-51.5145 62.8243C-51.5145 62.8243 -51.199 63.1397 -50.4105 63.4551C-49.4642 63.9283 -48.3602 64.4014 -47.0984 65.19C-43.9441 66.7672 -39.8436 68.8175 -34.639 71.3409C-24.2298 76.5455 -9.87774 83.8004 6.05147 91.8439C21.9807 99.8873 36.3327 106.984 46.8996 112.031C52.1042 114.555 56.5203 116.447 59.5168 117.709C60.9363 118.34 62.0403 118.813 62.9866 119.129C63.7752 119.444 64.2483 119.602 64.2483 119.602C64.2483 119.602 63.9329 119.286 63.1443 118.971C62.198 118.498 61.094 118.025 59.8323 117.236C56.678 115.659 52.5774 113.609 47.3728 111.085C36.9636 105.88 22.6115 98.6256 6.68233 90.5821C-9.24689 82.5387 -23.5989 75.4415 -34.1658 70.3946C-39.3704 67.8712 -43.7865 65.9786 -46.783 64.7169C-48.2025 64.086 -49.3065 63.6129 -50.2527 63.2974C-51.199 62.982 -51.5145 62.8243 -51.5145 62.8243Z" fill="#E0E0E0"/>
<path d="M269.278 408.535L192.155 328.574L118.817 403.488L269.278 408.535Z" fill="#EBEBEB"/>
<path d="M180.168 318.322L99.7338 238.676C99.7338 242.146 100.365 403.804 100.365 403.804L180.168 318.322Z" fill="#EBEBEB"/>
<path d="M248.932 273.531L203.353 319.111L293.408 412.005L335.045 362.167L248.932 273.531Z" fill="#EBEBEB"/>
<path d="M373.685 392.133L347.189 368.634L310.441 412.006H373.685V395.445" fill="#EBEBEB"/>
<path d="M-424.038 267.223H450.965V395.603H-424.038V267.223Z" fill="#FFC444"/>
<g opacity="0.5">
<g opacity="0.5">
<path opacity="0.5" d="M-424.038 267.223H450.965V395.603H-424.038V267.223Z" fill="black"/>
</g>
</g>
<path d="M389.464 457.913C394.564 453.389 399.121 448.25 403.012 442.602C399.082 454.62 406.58 456.891 426.519 457.913L389.464 457.913Z" fill="#263238"/>
<path d="M262.888 441.025C266.986 447.271 271.895 452.953 277.478 457.913L244.358 457.913C260.919 456.363 265.45 452.924 262.888 441.025Z" fill="#263238"/>
<path d="M339.138 310.61C385.631 313.738 420.786 353.964 417.658 400.457C416.602 416.141 411.326 430.534 403.012 442.602C399.121 448.25 394.564 453.389 389.464 457.913L277.478 457.913C271.895 452.953 266.986 447.271 262.888 441.025C253.16 426.196 248.008 408.189 249.291 389.129C252.419 342.636 292.645 307.482 339.138 310.61Z" fill="#263238"/>
<path d="M370.842 394.088C371.167 414.523 354.786 431.389 334.352 431.714C313.917 432.038 297.05 415.658 296.726 395.223C296.401 374.788 312.782 357.922 333.216 357.597C353.651 357.273 370.518 373.653 370.842 394.088Z" fill="white"/>
<path d="M222.752 194.99C222.752 194.99 347.031 204.137 393.084 214.546C425.573 221.801 488.186 234.419 487.397 273.69L482.508 301.921C482.508 301.921 505.692 312.487 505.692 339.614C505.692 366.741 511.37 408.694 457.116 410.271C448.126 410.586 431.251 410.271 431.251 410.271C431.251 410.271 441.66 294.823 335.675 291.511C227.798 288.042 235.053 409.167 235.053 409.167H-215.065C-215.065 409.167 -196.613 291.196 -312.691 290.88C-428.769 290.723 -411.105 409.798 -411.105 409.798C-411.105 409.798 -453.846 413.425 -473.718 377.624C-493.59 341.665 -488.385 316.115 -488.385 316.115L-487.754 293.404C-487.597 285.676 -481.288 279.525 -473.56 279.21C-473.56 279.21 -481.288 222.117 -469.459 212.181C-457.631 202.245 -392.337 142.628 -392.337 142.628L-395.491 140.736C-400.696 137.424 -399.749 129.696 -393.914 127.645C-369.153 119.129 -320.103 102.253 -308.59 98.3105C-306.855 97.6796 -305.121 97.3642 -303.228 97.2065C-296.288 96.7333 -276.89 95.4716 -241.246 94.9985C-197.717 94.5253 -25.0186 94.9985 -25.0186 94.9985C-25.0186 94.9985 34.4399 99.8876 67.56 114.397C102.257 129.853 222.752 194.99 222.752 194.99Z" fill="#FFC444"/>
<g opacity="0.4">
<g opacity="0.4">
<g opacity="0.4">
<path opacity="0.4" d="M474.149 336.46C478.723 335.514 485.505 335.514 488.974 338.51C491.498 340.718 492.129 344.503 492.602 347.815C493.075 352.547 493.391 357.278 492.286 361.852C491.182 366.426 488.501 370.842 484.401 373.05C480.3 375.258 474.622 374.942 471.468 371.473C468.472 368.318 468.156 363.587 468.314 359.329C468.472 353.178 467.998 348.131 469.102 342.138C469.26 341.034 469.891 339.614 470.68 338.668C471.784 337.091 472.73 336.46 474.149 336.46Z" fill="black"/>
</g>
</g>
</g>
<path d="M482.508 301.92C469.26 301.92 456.485 301.132 443.394 300.343C441.975 300.186 440.398 300.028 439.452 299.082C438.19 297.978 438.032 295.927 438.032 294.35C438.032 287.253 438.348 279.21 443.71 274.636C447.022 271.797 451.438 271.008 455.854 270.535C466.421 269.589 477.619 270.377 487.555 273.689L482.508 301.92Z" fill="#FAFAFA"/>
<path d="M208.557 405.539C208.557 405.539 208.557 405.224 208.715 404.435C208.715 403.647 208.872 402.543 208.872 401.123C209.03 398.127 209.346 393.868 209.503 388.348C209.819 382.828 210.134 376.046 210.923 368.318C211.711 360.59 212.973 351.601 215.496 342.138C218.178 332.675 222.12 322.423 228.271 312.487C234.265 302.551 242.15 292.773 252.875 285.045C274.166 269.904 302.871 261.388 332.994 260.915C363.118 260.599 391.822 270.062 412.482 285.991C422.892 293.719 431.566 302.867 438.348 312.33C445.129 321.792 450.019 331.571 453.488 340.718C456.958 350.023 458.851 358.698 459.797 366.584C460.901 374.312 460.743 381.093 460.586 386.613C460.112 392.133 459.639 396.392 459.008 399.231C458.693 400.65 458.535 401.754 458.377 402.543C458.22 403.331 458.22 403.647 458.22 403.647C458.22 403.647 458.378 403.331 458.535 402.543C458.693 401.754 458.851 400.65 459.166 399.231C459.797 396.392 460.428 392.133 460.901 386.613C461.216 381.093 461.374 374.312 460.27 366.426C459.324 358.698 457.431 349.708 453.961 340.403C450.492 331.098 445.603 321.319 438.821 311.699C432.197 302.078 423.365 292.931 412.956 285.203C392.137 269.116 363.275 259.653 332.994 259.968C302.713 260.284 273.851 268.958 252.402 284.256C241.677 291.984 233.791 301.92 227.64 311.856C221.647 321.95 217.547 332.044 215.023 341.665C212.342 351.285 211.238 360.117 210.45 368.003C209.661 375.889 209.346 382.67 209.188 388.19C209.03 393.711 208.715 397.969 208.715 400.965C208.715 402.385 208.557 403.489 208.557 404.277C208.557 405.224 208.557 405.539 208.557 405.539Z" fill="#F8924F"/>
<path d="M203.825 407.59C203.825 407.59 203.825 407.274 203.825 406.643C203.825 406.012 203.825 405.066 203.983 403.804C203.983 401.281 204.141 397.654 204.299 392.922C204.614 383.301 204.929 369.423 205.403 351.601C205.876 333.779 206.507 312.172 207.137 287.411C207.295 281.26 207.453 274.794 207.611 268.17C207.768 264.857 207.453 261.545 207.137 258.076C206.822 256.341 206.664 254.764 206.349 253.029C206.033 251.294 205.718 249.717 205.245 247.982C203.668 241.2 201.302 234.419 198.148 227.794C194.993 221.17 191.366 214.704 186.635 208.553C162.504 193.413 136.323 176.853 108.723 159.504C101.784 155.088 94.8445 150.672 87.7473 146.256C80.8078 141.524 73.2375 137.424 65.5095 133.796C57.7814 130.169 49.5802 126.857 41.379 124.176C37.2785 122.756 33.0202 121.495 28.7618 120.233C24.5035 119.129 20.2453 117.867 15.8292 117.079C-0.888541 113.293 -17.9217 111.559 -34.4818 110.77C-51.0419 109.981 -67.2866 109.981 -83.0581 110.928H-83.5312L-83.3735 111.401C-75.9609 144.836 -68.8637 176.222 -62.3974 205.084C-58.4545 211.55 -55.3002 218.332 -52.9345 225.271C-50.7265 232.21 -49.307 239.15 -49.7802 246.089C-50.2533 253.029 -50.5688 259.811 -50.7265 266.435C-50.8842 273.059 -51.0419 279.367 -51.0419 285.518C-51.3573 310.279 -51.5151 331.886 -51.5151 349.708C-51.5151 367.53 -51.5151 381.409 -51.5151 391.029C-51.5151 395.761 -51.5151 399.388 -51.5151 401.912C-51.5151 403.174 -51.5151 404.12 -51.5151 404.751C-51.5151 405.382 -51.5151 405.697 -51.5151 405.697C-51.5151 405.697 -51.5151 405.382 -51.5151 404.751C-51.5151 404.12 -51.5151 403.174 -51.5151 401.912C-51.5151 399.388 -51.5151 395.761 -51.5151 391.029C-51.5151 381.409 -51.3573 367.53 -51.1996 349.708C-51.0419 331.886 -50.8842 310.279 -50.5688 285.518C-50.4111 279.367 -50.2534 272.901 -50.0956 266.435C-49.9379 259.811 -49.7802 253.187 -49.1493 246.247C-48.6762 239.308 -50.0956 232.053 -52.3036 225.113C-54.6694 218.174 -57.8237 211.392 -61.7665 204.768V204.926C-68.2329 176.064 -75.1723 144.521 -82.5849 111.243L-82.9003 111.716C-67.1288 110.77 -50.8842 110.77 -34.3241 111.559C-17.7641 112.347 -0.888541 114.24 15.8292 117.867C20.2453 118.813 24.5035 119.917 28.7618 121.021C33.0202 122.283 37.2785 123.545 41.379 124.964C49.7379 127.803 57.7814 130.957 65.5095 134.585C73.2375 138.212 80.8078 142.313 87.7473 146.887C94.8445 151.303 101.942 155.719 108.881 160.135C136.639 177.641 162.82 194.043 186.95 209.184H186.792C191.524 215.177 195.151 221.644 198.305 228.268C201.46 234.892 203.668 241.673 205.245 248.297C208.715 261.861 206.98 275.109 206.98 287.568C206.349 312.33 205.876 333.937 205.403 351.758C204.929 369.58 204.614 383.617 204.456 393.08C204.299 397.811 204.299 401.439 204.299 403.962C204.299 405.224 204.299 406.17 204.299 406.801C203.825 407.274 203.825 407.59 203.825 407.59Z" fill="#F8924F"/>
<path d="M-29.7501 252.713C-29.7501 252.713 -30.2232 252.713 -31.0118 252.555C-31.8004 252.398 -33.0621 252.082 -34.3238 251.294C-35.5855 250.505 -37.0049 248.928 -37.6358 246.878C-37.9512 245.774 -38.109 244.67 -38.109 243.408C-38.109 242.146 -37.7935 240.884 -37.1627 239.623C-35.901 237.257 -33.2198 235.207 -29.9078 235.207C-26.5958 235.207 -22.9683 235.207 -19.3409 235.207C-11.7706 235.207 -3.56941 235.207 5.10492 235.207C7.15521 235.207 9.20551 235.995 10.6249 237.415C12.0444 238.834 12.9907 240.569 13.3061 242.619C13.4638 244.67 13.3061 246.562 12.3598 248.139C11.4135 249.716 9.99408 250.978 8.25922 251.767C6.52435 252.555 4.78951 252.398 3.05464 252.398C1.31978 252.398 -0.415069 252.398 -2.14993 252.398C-5.46195 252.398 -8.61628 252.398 -11.4552 252.398C-17.1329 252.398 -21.5489 252.555 -24.8609 252.555C-26.4381 252.555 -27.5421 252.555 -28.4884 252.555C-29.2769 252.713 -29.7501 252.713 -29.7501 252.713C-29.7501 252.713 -29.2769 252.713 -28.4884 252.871C-27.5421 252.871 -26.4381 252.871 -24.8609 252.871C-21.5489 252.871 -16.9752 252.871 -11.4552 253.028C-8.61628 253.028 -5.46195 253.028 -2.14993 253.028C-0.415069 253.028 1.16206 253.028 3.05464 253.028C4.00093 253.028 4.78953 253.028 5.73582 253.028C6.6821 253.028 7.62837 252.713 8.57466 252.398C10.3095 251.609 12.0444 250.347 12.9907 248.455C14.0947 246.72 14.2524 244.512 14.0947 242.462C13.937 240.411 12.833 238.203 11.2558 236.784C9.67869 235.364 7.47064 234.418 5.10492 234.418C-3.56941 234.418 -11.7706 234.418 -19.3409 234.418C-23.1261 234.418 -26.5958 234.418 -29.9078 234.418C-33.3775 234.418 -36.3741 236.626 -37.6358 239.307C-38.2667 240.569 -38.5821 241.988 -38.5821 243.25C-38.5821 244.512 -38.4244 245.774 -38.109 246.878C-37.3204 249.086 -35.9009 250.505 -34.4815 251.451C-33.0621 252.24 -31.8004 252.555 -31.0118 252.713C-30.0655 252.713 -29.7501 252.713 -29.7501 252.713Z" fill="#F8924F"/>
<path d="M180.799 208.711L-60.0317 204.295L-216.8 201.456L-268.531 171.648C-272.789 169.282 -273.893 163.762 -270.897 159.819L-238.723 117.552C-235.411 113.136 -230.206 110.612 -224.686 110.455L-49.3071 109.035C-49.3071 109.035 16.7755 105.25 68.6637 134.27C123.391 165.024 180.799 208.711 180.799 208.711Z" fill="#40447C"/>
<path d="M70.3988 113.451C70.3988 113.451 58.2547 118.971 66.1405 124.018C74.0262 129.065 196.098 206.03 196.098 206.03L224.171 193.255C174.491 165.655 124.18 138.686 70.3988 113.451Z" fill="#40447C"/>
<path d="M192.155 207.922C192.155 207.922 192.47 208.08 192.943 208.08C193.416 208.238 194.205 208.396 195.151 208.553C197.201 209.026 200.04 209.5 203.668 210.288C211.08 211.708 221.963 213.916 235.211 216.124C262.022 220.697 299.085 226.06 340.407 229.687C350.658 230.633 360.752 231.264 370.53 231.895C380.308 232.526 389.614 233.157 398.603 233.945C416.425 235.523 432.512 238.046 445.445 241.989C458.535 245.774 468.471 250.506 474.937 254.291C478.25 256.026 480.615 257.76 482.35 258.864C483.139 259.338 483.77 259.811 484.243 260.126C484.716 260.442 484.874 260.442 484.874 260.442C484.874 260.442 484.716 260.284 484.243 259.968C483.77 259.653 483.139 259.18 482.35 258.707C480.615 257.603 478.25 255.868 474.937 253.975C468.471 250.032 458.535 245.143 445.445 241.358C432.354 237.415 416.425 234.734 398.446 233.157C389.456 232.368 380.151 231.737 370.372 231.107C360.594 230.476 350.5 229.687 340.249 228.741C298.928 225.113 261.865 219.909 235.053 215.493C221.647 213.285 210.923 211.234 203.352 209.815C199.725 209.184 196.728 208.553 194.836 208.238C193.889 208.08 193.101 207.922 192.628 207.765C192.312 207.922 192.155 207.922 192.155 207.922Z" fill="#F8924F"/>
<path d="M-192.512 356.805C-192.512 356.963 -101.826 357.278 9.83623 357.278C121.656 357.278 212.185 357.121 212.185 356.805C212.185 356.648 121.498 356.332 9.83623 356.332C-101.984 356.332 -192.512 356.49 -192.512 356.805Z" fill="#F8924F"/>
<path d="M441.975 317.219C441.975 317.377 454.75 317.692 470.522 317.692C486.293 317.692 499.068 317.534 499.068 317.219C499.068 316.903 486.293 316.746 470.522 316.746C454.908 316.746 441.975 316.903 441.975 317.219Z" fill="#F8924F"/>
<path d="M150.518 200.668C150.518 200.668 73.5531 144.994 43.1142 133.954C13.7792 123.23 -1.51916 120.548 -28.9616 119.76C-55.3 118.971 -71.3869 119.76 -71.3869 119.76L-51.0417 198.144L150.518 200.668Z" fill="#40447C"/>
<path d="M161.873 200.825C161.873 195.936 159.192 191.52 154.934 188.996L137.27 179.06C132.223 176.221 126.545 174.802 120.71 174.802C117.082 174.802 113.612 175.433 110.143 176.537C102.572 179.06 97.5256 186.157 97.2102 194.201C96.737 205.241 105.569 214.388 116.609 214.388H148.152C155.722 214.388 161.873 208.237 161.873 200.825Z" fill="#FFC444"/>
<path d="M161.873 200.825C161.873 200.825 161.873 201.456 161.716 202.56C161.558 203.664 161.242 205.241 160.138 207.133C159.034 209.026 157.3 211.076 154.776 212.496C153.514 213.127 151.937 213.757 150.202 213.915C148.467 214.073 146.733 214.073 144.84 214.073C137.112 214.073 127.965 214.073 117.871 213.915C115.347 213.915 112.824 213.6 110.3 212.653C107.935 211.707 105.569 210.288 103.676 208.395C101.784 206.503 100.207 204.137 99.1027 201.613C98.1564 198.932 97.6833 196.093 97.9987 193.255C98.4718 187.577 101.468 182.214 105.884 179.06C108.092 177.483 110.616 176.537 113.139 175.906C115.663 175.275 118.344 174.96 120.71 174.96C125.757 174.96 130.488 176.064 134.589 177.956C136.639 178.902 138.531 180.006 140.266 180.953C142.159 181.899 143.894 183.003 145.471 183.949C148.783 185.842 151.937 187.419 154.461 188.996C157.142 190.416 158.877 192.466 159.823 194.359C160.927 196.251 161.242 197.828 161.4 198.932C161.716 200.194 161.716 200.825 161.873 200.825C161.873 200.825 162.031 200.194 161.873 199.09C161.716 197.986 161.4 196.251 160.454 194.359C159.508 192.466 157.773 190.258 154.934 188.839C152.253 187.261 149.256 185.527 145.944 183.634C144.209 182.688 142.474 181.741 140.739 180.637C138.847 179.691 137.112 178.429 134.904 177.483C130.803 175.59 125.914 174.329 120.71 174.329C118.186 174.329 115.505 174.644 112.824 175.275C110.3 175.906 107.462 176.852 105.254 178.429C100.522 181.584 97.3678 187.104 96.8947 193.097C96.737 196.093 97.0524 199.09 98.1564 201.771C99.2604 204.452 100.838 206.976 102.888 208.868C104.938 210.761 107.304 212.338 109.827 213.284C112.351 214.231 115.032 214.546 117.555 214.546C127.649 214.546 136.797 214.546 144.525 214.388C146.417 214.388 148.31 214.388 150.045 214.231C151.78 213.915 153.357 213.442 154.776 212.653C157.457 211.076 159.192 209.026 160.296 207.133C161.242 205.241 161.558 203.506 161.716 202.402C161.873 201.456 161.873 200.825 161.873 200.825Z" fill="#263238"/>
<path d="M-47.5719 208.711C-47.5719 208.711 -47.4142 208.711 -47.2564 208.711C-46.941 208.711 -46.6256 208.711 -46.1525 208.711C-45.2062 208.711 -43.7867 208.711 -42.0519 208.868C-38.4244 208.868 -33.2198 209.026 -26.9112 209.184C-14.1363 209.499 3.52778 209.815 22.9267 210.445C42.4834 210.919 60.1474 211.392 72.9223 211.392C79.3887 211.392 84.4355 211.392 88.063 211.392C89.7978 211.392 91.2173 211.392 92.1636 211.392C92.6367 211.392 92.9522 211.392 93.2676 211.392C93.583 211.392 93.583 211.392 93.583 211.392C93.583 211.392 93.4253 211.392 93.2676 211.392C92.9522 211.392 92.6367 211.392 92.1636 211.392C91.2173 211.392 89.7978 211.392 88.063 211.234C84.4355 211.234 79.2309 211.076 72.9223 210.919C60.1474 210.603 42.4834 210.288 23.0844 209.657C3.52779 209.184 -13.9786 208.711 -26.7535 208.711C-33.2198 208.711 -38.2667 208.711 -41.8941 208.711C-43.629 208.711 -45.0485 208.711 -45.9947 208.711C-46.4679 208.711 -46.7833 208.711 -47.0987 208.711C-47.4142 208.711 -47.5719 208.711 -47.5719 208.711Z" fill="white"/>
<path d="M-26.7537 232.526C-26.7537 232.684 -20.6028 232.999 -12.8748 232.999C-5.30448 232.999 1.00415 232.841 1.00415 232.526C1.00415 232.368 -5.14676 232.053 -12.8748 232.053C-20.4451 232.053 -26.7537 232.211 -26.7537 232.526Z" fill="white"/>
<path d="M-31.8007 147.991C-31.9585 148.148 -14.7675 155.403 6.52403 163.92C27.8156 172.594 45.0065 179.376 45.1642 179.06C45.3219 178.903 28.131 171.648 6.83944 163.131C-14.4521 154.615 -31.643 147.833 -31.8007 147.991Z" fill="#6D72B9"/>
<path d="M3.05424 153.51C2.89652 153.668 19.2989 160.923 39.4864 169.597C59.6739 178.272 76.234 185.053 76.234 184.896C76.3917 184.738 59.9893 177.483 39.8018 168.809C19.6143 160.134 3.05424 153.195 3.05424 153.51Z" fill="#6D72B9"/>
<path d="M394.661 219.436C394.661 219.436 394.976 219.593 395.607 219.593C396.238 219.751 397.184 219.751 398.288 219.909C399.392 220.067 400.811 220.224 402.546 220.54C404.123 220.855 406.016 221.013 408.066 221.486C412.167 222.275 417.056 223.221 422.418 224.64C427.781 226.06 433.458 227.952 439.452 230.318C445.445 232.684 450.965 235.207 455.854 237.731C460.743 240.254 465.001 242.777 468.471 245.143C470.206 246.247 471.783 247.351 473.203 248.298C474.622 249.244 475.726 250.032 476.672 250.821C477.619 251.452 478.25 251.925 478.88 252.398C479.354 252.714 479.669 252.871 479.669 252.871C479.669 252.871 479.511 252.556 479.038 252.24C478.565 251.767 477.776 251.294 476.988 250.506C476.042 249.717 474.938 248.928 473.518 247.982C472.099 247.036 470.679 245.932 468.944 244.828C465.475 242.462 461.216 239.939 456.327 237.257C451.438 234.734 445.918 232.053 439.925 229.687C433.932 227.321 428.096 225.587 422.734 224.009C417.372 222.59 412.482 221.644 408.382 221.013C406.331 220.697 404.439 220.382 402.704 220.224C401.127 220.067 399.55 219.909 398.446 219.751C397.342 219.593 396.395 219.593 395.765 219.593C394.976 219.436 394.661 219.436 394.661 219.436Z" fill="white"/>
<path d="M112.982 182.215C112.982 182.215 113.455 181.584 114.559 180.795C115.663 180.007 117.398 179.06 119.764 178.745C122.129 178.43 125.126 178.903 128.123 179.691C131.277 180.48 134.589 181.584 138.059 183.003C144.84 186 150.518 189.943 154.145 193.097C157.931 196.251 159.823 198.617 159.981 198.459C159.981 198.459 159.508 197.829 158.719 196.725C157.773 195.621 156.354 194.201 154.619 192.624C150.991 189.312 145.313 185.211 138.374 182.215C134.904 180.638 131.435 179.534 128.28 178.903C125.126 178.114 122.129 177.799 119.606 178.114C117.082 178.43 115.348 179.534 114.244 180.48C113.77 180.953 113.455 181.426 113.14 181.742C112.982 182.057 112.982 182.215 112.982 182.215Z" fill="white"/>
<path d="M372.099 153.175C378.408 118.636 382.666 113.431 386.136 101.445C389.605 89.7738 395.283 81.888 402.38 79.2069C407.112 77.3143 430.927 68.7977 439.128 71.6365C448.275 74.7908 456.319 79.3646 461.997 83.1497C467.517 86.7772 471.775 92.1395 473.983 98.4481L486.758 134.092L464.52 156.172L453.322 132.515L441.178 160.903L442.913 189.607L373.676 208.218C367.525 197.966 368.472 172.732 372.099 153.175Z" fill="#13B72F"/>
<g opacity="0.2">
<g opacity="0.2">
<path opacity="0.2" d="M390.078 115.482C393.075 133.461 393.548 135.984 396.702 153.964C397.806 160.115 400.803 169.735 405.219 174.151C408.531 177.463 411.685 180.618 416.101 181.722C420.36 182.668 426.668 182.826 430.611 181.091C434.554 179.356 437.866 171.628 436.289 167.685C430.453 168.947 428.561 170.839 423.514 167.685C419.098 164.846 412.789 158.695 410.424 153.964C400.487 134.407 397.649 133.776 390.078 115.482Z" fill="black"/>
</g>
</g>
<path d="M440.232 150.337C440.39 150.337 441.494 148.602 443.229 145.605C445.122 142.451 447.645 138.35 450.326 133.934C453.165 129.518 455.688 125.575 457.581 122.421C459.474 119.424 460.578 117.69 460.578 117.532C460.578 117.532 460.104 117.847 459.631 118.636C459 119.424 458.212 120.528 457.266 121.948C455.215 124.787 452.534 128.887 449.695 133.303C446.856 137.877 444.491 141.978 442.756 145.132C441.967 146.709 441.179 147.971 440.863 148.759C440.39 149.863 440.232 150.337 440.232 150.337Z" fill="#263238"/>
<path d="M391.971 182.51C391.971 182.51 392.602 182.825 393.548 183.141C394.022 183.298 394.81 183.456 395.441 183.614C396.23 183.772 397.018 184.087 398.122 184.245C400.172 184.56 402.538 184.876 405.062 184.876C407.743 184.876 410.582 184.718 413.736 184.087C416.733 183.456 419.571 182.668 422.095 181.721C424.618 180.775 426.669 179.671 428.403 178.725C429.35 178.252 429.981 177.778 430.611 177.305C431.242 176.832 431.873 176.517 432.189 176.044C433.135 175.413 433.608 174.94 433.45 174.94C433.293 174.782 431.4 176.359 427.93 178.252C426.195 179.198 423.987 180.144 421.622 181.09C419.098 182.037 416.417 182.825 413.421 183.298C410.424 183.772 407.585 184.087 404.904 184.087C402.223 184.087 400.015 183.929 397.964 183.614C394.337 183.141 391.971 182.352 391.971 182.51Z" fill="#263238"/>
<path d="M419.729 128.729C419.887 129.36 427.299 144.185 427.299 144.185L462.47 125.733L466.097 110.592C466.728 108.226 468.147 106.176 470.198 104.914C472.406 103.495 475.087 103.022 477.453 103.653L487.862 107.911C488.65 108.226 489.439 109.015 489.597 109.961C489.754 110.75 489.597 111.538 488.177 111.381C485.654 111.223 480.292 110.592 480.292 110.592L482.815 119.266C483.446 121.474 483.13 123.998 482.184 126.048L480.607 129.045L477.137 134.565C477.137 134.565 442.913 169.578 423.83 171.943C412.316 173.363 399.226 141.031 399.226 141.031L419.729 128.729Z" fill="#FFC5B3"/>
<path d="M405.228 80.6463C421 83.8004 417.057 107.458 423.365 126.384L396.703 142.293L387.082 114.535C387.082 114.535 383.779 79.5422 405.228 80.6463Z" fill="#0AA124"/>
<path d="M373.834 208.06C373.834 208.06 382.981 219.889 391.813 223.043C402.853 227.144 484.077 265.468 484.077 265.468C484.077 265.468 498.744 374.923 497.64 370.349L522.253 365.478L528.079 268.78C527.606 255.848 517.354 241.022 506.157 234.398L430.927 189.607L373.834 208.06Z" fill="#006AFE"/>
<path d="M528.395 287.233C528.395 287.233 528.237 286.76 528.237 285.813C528.237 284.867 528.079 283.448 528.079 281.871C527.922 278.401 527.764 273.512 526.66 267.361C525.714 261.368 523.821 254.113 519.247 247.331C517.039 244.019 514.043 241.022 510.573 238.341C507.103 235.66 503.16 233.294 499.06 231.086C482.657 221.781 468.471 212.653 458.062 206.029C452.858 202.717 449.073 200.667 446.234 198.932C444.814 198.144 439.925 195.462 439.136 194.989C438.348 194.516 431.251 189.469 431.251 189.469C431.251 189.469 441.967 195.127 442.756 195.6C443.544 196.074 444.806 196.704 446.225 197.493C449.222 199.228 453.48 201.751 458.842 204.906C469.409 211.372 483.604 220.677 499.848 230.14C503.949 232.506 507.892 234.872 511.519 237.553C515.147 240.234 518.143 243.388 520.509 246.858C525.083 253.797 526.818 261.21 527.764 267.203C528.71 273.354 528.71 278.401 528.71 281.871C528.71 283.448 528.71 284.867 528.71 285.813C528.552 286.76 528.552 287.233 528.395 287.233Z" fill="#455A64"/>
<path d="M438.97 16.1211C441.02 10.1279 448.118 6.50048 454.111 7.91991C455.53 8.23534 456.95 8.8662 458.369 8.8662C460.104 8.8662 461.839 7.91991 463.574 7.44676C467.359 6.65819 471.459 9.33934 472.248 13.1245C475.245 12.4936 478.557 12.9668 480.922 14.8594C483.288 16.7519 484.392 20.3794 482.973 23.0605C482.342 24.1646 481.396 25.1108 480.765 26.3726C479.818 28.2651 480.292 30.6309 479.661 32.6812C478.714 35.6777 475.402 37.5703 472.248 37.8858C469.094 38.2012 465.939 37.4126 462.785 36.4663" fill="#263238"/>
<path d="M453.637 78.5758C454.111 75.5792 454.268 73.3712 454.268 73.3712C454.268 73.3712 464.362 73.3712 468.463 60.754C470.513 54.4454 471.932 43.8785 472.721 35.2042C473.51 27.3184 467.516 20.5367 459.631 20.0635L432.661 18.6441L432.031 22.9024L424.933 74.7906C423.829 82.6764 429.349 89.9313 437.393 91.0353C445.279 91.9816 452.533 86.4616 453.637 78.5758Z" fill="#FFC5B3"/>
<path d="M468.936 42.617C468.778 43.5633 467.989 44.1941 467.043 44.0364C466.097 43.8787 465.466 43.0901 465.624 42.3016C465.781 41.3553 466.57 40.7244 467.516 40.8821C468.305 40.8821 469.093 41.6707 468.936 42.617Z" fill="#263238"/>
<path d="M469.567 40.2513C469.251 40.409 468.147 39.305 466.412 38.9896C464.677 38.6742 463.258 39.4627 463.1 39.1473C462.943 38.9896 463.258 38.6742 463.889 38.3587C464.52 38.0433 465.466 37.7279 466.57 38.0433C467.674 38.201 468.62 38.8319 469.093 39.305C469.567 39.7782 469.724 40.0936 469.567 40.2513Z" fill="#263238"/>
<path d="M452.06 39.7781C451.903 40.7244 451.114 41.3553 450.168 41.1976C449.221 41.0398 448.591 40.2513 448.748 39.4627C448.906 38.5164 449.695 37.8855 450.641 38.0433C451.429 38.0433 452.06 38.8318 452.06 39.7781Z" fill="#263238"/>
<path d="M452.061 37.7279C451.745 37.8856 450.641 36.7816 448.906 36.4662C447.172 36.1507 445.752 36.9393 445.594 36.6239C445.437 36.4662 445.752 36.1507 446.383 35.8353C447.014 35.5199 447.96 35.2044 449.064 35.5199C450.168 35.6776 451.114 36.3084 451.588 36.7816C452.061 37.2547 452.218 37.7279 452.061 37.7279Z" fill="#263238"/>
<path d="M456.319 52.0797C456.319 51.9219 457.423 51.9219 459.315 52.0797C459.789 52.0797 460.262 52.0797 460.419 51.7642C460.577 51.4488 460.419 50.9756 460.262 50.3448C459.946 49.2408 459.789 47.9791 459.473 46.7174C458.369 41.5128 457.738 37.2545 457.896 37.0967C458.054 37.0967 459.158 41.1973 460.262 46.5596C460.577 47.8214 460.735 49.0831 461.05 50.1871C461.208 50.6602 461.366 51.2911 461.05 52.0797C460.893 52.3951 460.577 52.5528 460.262 52.5528C459.946 52.5528 459.631 52.5528 459.473 52.5528C457.581 52.2374 456.319 52.0797 456.319 52.0797Z" fill="#263238"/>
<path d="M454.269 73.3712C454.269 73.3712 445.437 72.5826 437.708 65.9586C437.708 65.9586 440.547 75.4215 453.638 76.3677L454.269 73.3712Z" fill="#AA6550"/>
<path d="M450.957 52.3951C451.272 52.3951 450.957 54.2877 452.376 56.0225C453.796 57.5997 455.846 57.7574 455.846 58.0728C455.846 58.2305 455.373 58.3882 454.427 58.2305C453.638 58.0728 452.376 57.5997 451.43 56.6534C450.484 55.7071 450.326 54.4454 450.326 53.6568C450.484 52.8682 450.799 52.3951 450.957 52.3951Z" fill="#263238"/>
<path d="M453.637 30.9459C453.322 31.419 451.587 30.9459 449.537 30.7882C447.329 30.6304 445.594 30.9459 445.436 30.4727C445.279 30.315 445.752 29.8419 446.54 29.5264C447.329 29.211 448.433 28.8956 449.695 28.8956C450.956 28.8956 452.06 29.3687 452.849 29.8419C453.322 30.1573 453.637 30.6304 453.637 30.9459Z" fill="#263238"/>
<path d="M469.725 35.0468C469.409 35.3622 468.147 34.7314 466.728 34.5736C465.309 34.2582 463.889 34.4159 463.731 33.9428C463.574 33.7851 463.889 33.3119 464.52 32.9965C465.151 32.6811 466.097 32.5234 467.043 32.6811C467.99 32.8388 468.936 33.3119 469.251 33.9428C469.882 34.4159 469.882 34.7314 469.725 35.0468Z" fill="#263238"/>
<path d="M474.141 29.5264C474.141 29.5264 467.043 31.8922 458.842 26.3721C453.48 22.7447 446.856 20.5367 445.279 21.483C443.702 22.4293 442.598 28.2647 436.604 29.3687C436.604 29.3687 435.5 40.7242 431.084 39.7779C427.93 39.1471 429.823 26.5299 431.084 19.4327C431.558 16.5938 434.081 14.5435 436.92 14.3858L445.279 14.0704L455.688 16.9092L466.886 19.9058L475.402 23.3756L474.141 29.5264Z" fill="#263238"/>
<path d="M432.188 35.2045C432.031 35.0468 425.091 31.4194 423.83 38.9897C422.568 46.56 430.296 46.2446 430.454 46.0869C430.454 45.7714 432.188 35.2045 432.188 35.2045Z" fill="#B78876"/>
<path d="M428.561 42.775C428.561 42.775 428.404 42.775 428.246 42.9327C428.088 42.9327 427.615 42.9327 427.3 42.775C426.511 42.3018 426.038 41.0401 426.353 39.6207C426.511 38.9898 426.669 38.3589 426.984 37.7281C427.3 37.2549 427.773 36.9395 428.088 36.9395C428.561 36.9395 428.719 37.2549 428.877 37.4127C428.877 37.5704 428.877 37.7281 428.877 37.7281C428.877 37.7281 429.034 37.5704 429.034 37.2549C429.034 37.0972 429.034 36.9395 428.877 36.7818C428.719 36.6241 428.404 36.4664 428.246 36.4664C427.615 36.4664 426.984 36.7818 426.669 37.4127C426.196 37.8858 426.038 38.6744 425.88 39.463C425.722 41.0401 426.196 42.4595 427.3 43.0904C427.773 43.2481 428.246 43.2481 428.561 43.0904C428.561 42.9327 428.561 42.775 428.561 42.775Z" fill="#AA6550"/>
<path d="M470.513 10.4429C470.513 10.4429 470.198 10.916 469.725 11.3892C469.252 12.02 468.305 12.8086 466.886 13.2817C465.467 13.7549 463.732 13.9126 461.839 13.4395C459.947 13.124 457.896 12.3355 455.846 11.5469C453.638 10.7583 451.43 10.2852 449.38 10.4429C447.329 10.6006 445.594 11.5469 444.49 12.6509C443.386 13.7549 443.071 15.0166 442.913 15.9629C442.913 16.9092 443.071 17.2246 443.071 17.2246C443.071 17.2246 443.071 16.7515 443.229 15.9629C443.386 15.1743 443.86 14.0703 444.806 12.9663C445.752 12.02 447.487 11.2315 449.38 11.0737C451.272 10.916 453.322 11.5469 455.531 12.1777C457.739 12.9663 459.789 13.7549 461.681 14.0703C463.732 14.3857 465.624 14.228 467.044 13.5972C468.463 12.9663 469.409 12.1777 469.883 11.3892C470.356 10.916 470.513 10.4429 470.513 10.4429Z" fill="#455A64"/>
<path d="M445.121 17.5403C445.121 17.5403 445.436 17.0672 446.225 16.5941C447.014 16.1209 448.275 15.49 450.01 15.49C451.745 15.3323 453.638 15.9632 455.688 16.9095C457.738 17.8558 459.946 19.2752 462.47 20.0638C467.832 21.7986 472.879 20.3792 475.875 18.6443C477.453 17.6981 478.557 16.7518 479.188 16.1209C479.818 15.3323 480.134 15.0169 480.134 14.8592C479.976 14.7015 478.714 16.4363 475.56 18.1712C472.563 19.7484 467.674 21.0101 462.627 19.4329C460.104 18.6443 458.054 17.2249 455.846 16.2786C453.795 15.3323 451.587 14.8592 449.695 15.0169C447.96 15.1746 446.54 15.8055 445.752 16.4363C445.279 17.0672 444.963 17.5403 445.121 17.5403Z" fill="#455A64"/>
<path d="M468.463 145.763L505.053 114.535L517.197 117.216C517.197 117.216 504.422 143.712 495.275 153.333C495.275 153.333 486.127 165.477 471.144 160.273C456.004 155.068 468.463 145.763 468.463 145.763Z" fill="#FFC5B3"/>
<path d="M507.892 80.1534H523.505C525.871 80.1534 527.921 82.8345 527.133 85.0425L511.519 115.482C510.888 116.586 509.627 117.374 508.365 117.374H489.439C487.231 117.059 486.442 114.693 487.389 113.431L502.529 83.6231C503.318 81.5728 505.526 80.1534 507.892 80.1534Z" fill="#455A64"/>
<path d="M508.838 82.046H524.452C526.345 82.046 527.606 84.0962 526.818 85.8311L511.519 115.639C510.888 116.743 509.627 117.532 508.365 117.532H489.597C488.493 117.532 487.704 116.27 488.177 115.324L503.318 85.5157C504.264 83.3077 506.472 82.046 508.838 82.046Z" fill="#263238"/>
<path d="M510.258 94.5054L519.721 98.2906L521.771 105.861L517.197 117.216L500.479 119.582L505.369 114.535L504.738 110.119C504.738 110.119 500.006 108.7 500.006 107.911C499.849 107.123 500.637 104.757 501.268 104.757C502.057 104.599 506.946 106.492 506.946 106.492C506.946 106.492 501.11 101.918 501.268 101.129C501.426 100.341 502.057 98.4483 503.161 98.2906C504.265 98.1329 513.728 102.549 513.728 102.549L515.305 106.019L516.566 100.499C516.409 100.656 508.208 98.2906 510.258 94.5054Z" fill="#FFC5B3"/>
<path d="M515.935 87.7237C515.935 88.8277 514.989 89.774 513.885 89.774C512.781 89.774 511.835 88.8277 511.835 87.7237C511.835 86.6197 512.781 85.6734 513.885 85.6734C514.989 85.8311 515.935 86.6197 515.935 87.7237Z" fill="#FAFAFA"/>
<path d="M480.258 46.276C474.403 59.7344 457.765 66.4665 443.088 61.327C428.412 56.1875 421.274 41.1157 427.129 27.6573C432.984 14.1989 449.622 7.4668 464.299 12.6063C478.971 17.7671 486.133 32.8418 480.258 46.276Z" fill="#4C1B1B"/>
<path d="M431.791 21.1857C431.791 21.1857 432.032 11.899 440.548 9.20742C449.064 6.51582 453.352 9.70087 460.666 7.44899C467.983 5.17562 495.46 9.34604 493.981 21.3534C492.522 33.3853 480.571 32.2537 480.571 32.2537L431.791 21.1857Z" fill="#4C1B1B"/>
<path d="M472.621 50.8424C472.621 50.8424 478.889 47.2129 480.215 52.6061C481.542 57.9993 471.992 68.9865 465.705 63.1245L472.621 50.8424Z" fill="#FFC5B3"/>
<path d="M426.334 60.9315L425.63 67.9406C427.674 73.0028 441.654 82.1049 453.499 79.0862L454.985 71.3042L426.334 60.9315Z" fill="#EFB7A6"/>
<path d="M480.583 43.514C479.087 47.1039 476.949 51.8064 474.124 56.4857C473.393 57.6958 472.612 58.9212 471.812 60.1223C465.968 68.6731 457.93 76.2885 447.806 76.0907C427.039 75.6716 424.86 60.6287 425.481 50.2082C425.547 49.1297 425.629 48.0967 425.743 47.1549C425.867 46.0185 426.078 44.7849 426.347 43.4934C427.454 38.2881 429.592 32.0636 431.464 27.1093C433.608 21.4073 439.501 17.5589 446.071 17.5371C455.542 17.5201 469.056 19.5903 478.184 29.8992C481.598 33.7097 482.498 38.8695 480.583 43.514Z" fill="#FFC5B3"/>
<path d="M471.856 55.7765C473.419 53.4893 475.269 50.497 475.639 48.7546C476.264 45.6696 474.396 43.0489 476.466 40.5871C478.54 38.1039 476.638 34.016 474.5 32.6922C472.363 31.3684 466.419 30.514 462.038 26.259C457.861 22.205 448.189 20.6728 445.392 23.1937C442.026 26.2523 444.282 27.4387 437.704 29.7334C435.088 30.6403 435.58 35.5722 434.743 38.3678C434.356 39.6496 434.109 40.2509 433.478 41.5666L433.174 42.226L427.385 40.1908C428.563 35.8237 430.185 31.0991 431.665 27.2074C433.816 21.4814 439.733 17.6167 446.348 17.619C455.879 17.6047 469.399 19.6771 478.61 30.0352C481.991 33.8555 482.917 39.04 480.995 43.7041C479.513 47.3334 477.346 52.0314 474.511 56.7304L471.856 55.7765Z" fill="#4C1B1B"/>
<path d="M428.311 43.7796C428.898 42.4026 429.375 40.9882 429.673 39.527C430.1 37.5392 430.212 35.6378 428.498 34.1117C427.13 32.8957 425.374 32.235 423.432 33.5088C418.617 36.6446 416.542 51.1013 425.309 50.7864L428.311 43.7796Z" fill="#FFC5B3"/>
<path d="M514.207 366.214C514.207 366.214 517.622 361.947 520.423 362.177C523.237 362.386 545.362 378.286 552.822 379.663C560.283 381.039 560.012 389.429 557.096 390.31C553.781 391.307 498.702 388.958 498.702 388.958C498.702 388.958 496.399 371.157 498.146 366.414C499.928 361.662 508.434 367.263 514.207 366.214Z" fill="#392543"/>
<path fill-rule="evenodd" clip-rule="evenodd" d="M557.096 390.31C558.314 389.942 559.07 388.264 558.995 386.335L498.218 384.648C498.475 387.203 498.702 388.958 498.702 388.958C498.702 388.958 553.781 391.307 557.096 390.31Z" fill="#638A31"/>
<path d="M431.251 189.469C431.251 189.469 503.633 159.168 526.187 157.906C540.381 157.118 551.106 166.108 549.055 180.775C548.109 188.03 520.675 269.272 520.675 269.272L500.172 259.809L511.992 200.49L476.2 215.492L431.251 189.469Z" fill="#0654C1"/>
<path d="M521.14 185.506C521.455 185.664 518.932 188.818 516.408 192.919C513.885 197.02 512.15 200.647 511.835 200.489C511.519 200.332 512.781 196.546 515.462 192.446C518.143 188.188 520.982 185.349 521.14 185.506Z" fill="#455A64"/>
<path d="M527.133 188.977C527.29 189.292 523.663 191.658 519.247 194.812C514.989 197.966 511.519 200.805 511.361 200.647C511.204 200.49 514.2 197.178 518.616 194.023C523.032 190.554 526.975 188.661 527.133 188.977Z" fill="#455A64"/>
<path d="M513.462 265.92C513.462 265.92 518.346 263.67 520.795 265.118C523.264 266.553 536.727 290.419 542.93 294.948C549.133 299.478 545.385 306.764 542.367 306.246C538.939 305.653 489.882 279.109 489.882 279.109C489.882 279.109 495.22 262.371 498.787 258.961C502.39 255.558 507.78 264.281 513.462 265.92Z" fill="#392543"/>
<path fill-rule="evenodd" clip-rule="evenodd" d="M542.367 306.246C543.627 306.462 545.015 305.318 545.752 303.581L491.241 275.088C490.408 277.458 489.882 279.109 489.882 279.109C489.882 279.109 538.939 305.653 542.367 306.246Z" fill="#638A31"/>
</svg>
