<svg width="865" height="309" viewBox="0 0 865 309" fill="none" xmlns="http://www.w3.org/2000/svg">
<path d="M286.695 156.413C284.013 155.314 278.941 154.894 274.385 155.476C269.022 156.154 266.34 157.931 268.44 159.482C277.39 166.105 288.957 172.729 303.14 179.223C307.438 181.194 311.896 183.1 316.484 184.942C332.09 191.242 349.181 196.799 367.081 201.581C371.249 202.68 377.84 202.583 381.846 201.323C385.335 200.224 385.658 198.609 382.848 197.478C382.46 197.316 382.008 197.187 381.523 197.026C364.657 192.535 348.438 187.236 333.576 181.259C329.214 179.514 324.982 177.672 320.878 175.798C307.373 169.627 296.388 163.295 287.923 157.059C287.567 156.833 287.18 156.607 286.695 156.413Z" fill="url(#paint0_linear)"/>
<path opacity="0.2" d="M226.051 150.855C223.466 149.821 218.717 149.369 214.226 149.854C208.733 150.435 205.761 152.212 207.57 153.763C220.268 164.845 238.587 176.121 262.496 187.042C268.215 189.659 274.16 192.211 280.266 194.667C304.595 204.489 331.67 212.986 359.973 219.997C364.303 221.064 370.894 220.87 374.706 219.577C377.97 218.479 378.163 216.896 375.449 215.797C374.997 215.603 374.448 215.442 373.834 215.28C346.791 208.592 320.782 200.418 297.358 190.984C291.477 188.625 285.759 186.17 280.234 183.649C257.197 173.117 239.556 162.261 227.44 151.663C227.085 151.372 226.632 151.114 226.051 150.855Z" fill="url(#paint1_linear)"/>
<path d="M676.799 192.179C674.99 191.468 672.082 190.983 668.689 190.983C662.906 190.983 658.06 192.34 657.801 194.02C656.638 201.872 651.404 209.012 642.357 214.989C637.834 217.994 632.374 220.708 625.976 223.131C619.579 225.554 612.277 227.655 604.006 229.432C602.455 229.755 600.872 230.078 599.224 230.401C590.178 232.146 580.452 233.438 570.146 234.343C554.637 235.7 537.707 236.12 519.743 235.603C501.779 235.118 482.814 233.729 463.428 231.467C458.161 230.853 451.99 231.629 449.664 233.179C448.146 234.213 448.63 235.312 450.666 236.152C451.732 236.572 453.186 236.927 454.995 237.121C482.878 240.384 510.6 242.064 536.996 241.871C550.179 241.774 563.038 241.224 575.348 240.158C587.657 239.092 599.386 237.509 610.274 235.409C612.213 235.021 614.151 234.633 616.025 234.246C626.009 232.081 634.764 229.561 642.325 226.685C653.665 222.388 662.292 217.38 668.269 211.888C674.247 206.395 677.671 200.385 678.608 194.02C678.802 193.342 678.091 192.696 676.799 192.179Z" fill="url(#paint2_linear)"/>
<path opacity="0.2" d="M146.344 143.553C143.856 142.552 139.333 142.1 134.939 142.52C129.382 143.037 126.183 144.781 127.766 146.364C144.567 163.294 171.416 180.741 208.184 197.542C215.809 201.032 223.693 204.424 231.802 207.688C267.763 222.194 308.182 234.537 350.378 244.391C354.772 245.425 361.363 245.166 365.078 243.842C368.18 242.711 368.277 241.192 365.628 240.126C365.111 239.932 364.497 239.738 363.786 239.577C323.109 230.11 283.82 218.091 248.862 204.004C240.978 200.838 233.289 197.542 225.857 194.15C190.059 177.801 164.017 160.839 147.766 144.49C147.507 144.135 146.99 143.812 146.344 143.553Z" fill="url(#paint3_linear)"/>
<path d="M442.136 50.3411C441.263 49.9856 440.132 49.6948 438.743 49.501C395.481 42.8452 351.96 38.9035 310.669 38.225C290.023 37.9019 269.959 38.3543 250.832 39.7436C231.705 41.1006 213.547 43.3945 196.908 46.5931C194.355 47.0778 191.835 47.5947 189.379 48.144C174.033 51.4719 160.85 55.4782 149.833 60.0661C133.29 66.948 121.691 75.09 114.713 84.072C107.766 93.0863 105.407 102.941 107.54 113.377C107.669 113.958 108.348 114.475 109.414 114.927C111.417 115.735 114.842 116.22 118.59 116.123C124.341 115.961 128.735 114.475 128.379 112.795C125.665 99.5482 130.609 87.4322 142.919 77.2224C149.057 72.1175 157.038 67.4973 166.763 63.4586C176.52 59.3876 188.022 55.8983 201.366 53.0227C203.499 52.5704 205.696 52.118 207.893 51.698C222.4 48.8871 238.167 46.9162 255 45.7208C280.266 43.9115 308.084 43.8145 337.389 45.3977C366.693 46.9809 397.419 50.2118 428.339 54.9936C433.347 55.769 439.712 55.1874 442.588 53.7012C444.72 52.5057 444.365 51.2457 442.136 50.3411Z" fill="url(#paint4_linear)"/>
<path opacity="0.2" d="M756.505 199.513C754.599 198.738 751.4 198.253 747.846 198.318C742.063 198.415 737.475 199.837 737.54 201.517C738.024 213.471 731.918 224.392 719.511 233.567C713.308 238.155 705.553 242.323 696.281 246.039C687.008 249.722 676.217 252.921 663.81 255.603C661.677 256.055 659.48 256.507 657.283 256.927C643.81 259.512 629.239 261.418 613.698 262.646C590.403 264.488 564.879 264.811 537.965 263.712C511.051 262.614 482.748 260.061 454.09 256.152C448.953 255.441 442.652 256.119 440.067 257.638C438.258 258.704 438.678 259.9 440.843 260.772C441.78 261.16 443.072 261.483 444.655 261.677C484.913 267.169 525.106 270.206 563.198 270.4C582.229 270.497 600.774 269.883 618.415 268.494C636.056 267.105 652.857 264.94 668.333 261.935C670.886 261.45 673.373 260.934 675.829 260.417C690.045 257.347 702.452 253.664 712.952 249.496C728.719 243.228 740.254 235.861 747.75 227.72C755.245 219.578 758.767 210.66 758.379 201.194C758.379 200.547 757.701 199.966 756.505 199.513Z" fill="url(#paint5_linear)"/>
<path d="M633.407 100.841C602.422 88.3369 568.109 77.4486 532.214 68.3697C527.949 67.3035 521.325 67.465 517.448 68.7574C514.12 69.8559 513.894 71.4391 516.64 72.5699C517.06 72.7315 517.577 72.9253 518.159 73.0546C552.827 81.8104 586.17 92.4079 616.315 104.556C624.198 107.723 631.888 111.018 639.287 114.411C679.609 132.827 707.621 152.019 723.097 170.273C723.42 170.661 723.97 170.984 724.68 171.275C727.071 172.244 731.401 172.697 735.698 172.341C741.287 171.889 744.712 170.176 743.355 168.561C727.297 149.628 698.445 129.887 656.992 110.953C649.432 107.496 641.516 104.104 633.407 100.841Z" fill="url(#paint6_linear)"/>
<path opacity="0.2" d="M40.7564 133.893C38.3332 132.924 33.9715 132.439 29.642 132.827C24.0525 133.311 20.66 134.991 22.0816 136.607C43.7289 161.227 81.6278 186.913 135.552 211.532C145.73 216.185 156.23 220.676 167.054 225.038C218.523 245.78 276.841 263.26 337.518 276.765C342.009 277.767 348.568 277.476 352.186 276.119C355.159 275.02 355.223 273.502 352.606 272.468C352.057 272.242 351.379 272.048 350.603 271.854C291.606 258.704 234.548 241.645 184.145 221.322C173.548 217.057 163.274 212.631 153.29 208.075C100.464 183.94 63.4053 158.803 42.3396 134.83C42.0165 134.507 41.4673 134.184 40.7564 133.893Z" fill="url(#paint7_linear)"/>
<path opacity="0.2" d="M455.157 17.9669C454.349 17.6438 453.283 17.353 452.023 17.1591C392.444 7.40172 332.316 1.5214 275.452 0.261336C247.02 -0.384851 219.395 0.164392 193.192 1.94141C166.957 3.71842 142.144 6.78781 119.398 11.1496C116.038 11.7958 112.742 12.4742 109.511 13.1527C88.5423 17.6761 70.6106 23.2333 55.7806 29.5659C33.5194 39.0649 18.1402 50.3732 9.38433 62.9415C0.628496 75.4775 -1.53623 89.2736 2.69629 103.813C2.85784 104.362 3.53634 104.879 4.53793 105.267C6.60573 106.107 10.1274 106.591 13.9723 106.43C19.7233 106.236 23.9882 104.685 23.5035 103.037C18.0432 84.2979 23.6974 67.0448 40.1428 52.5056C48.3817 45.236 59.3023 38.6448 72.8722 32.8615C86.4422 27.0781 102.629 22.0701 121.498 17.9991C124.406 17.3853 127.378 16.7714 130.383 16.1899C150.867 12.2481 173.193 9.50181 197.102 7.85404C232.933 5.43083 272.286 5.52776 313.577 8.01558C354.868 10.5034 398.001 15.4144 441.199 22.4902C446.142 23.2979 452.572 22.7486 455.544 21.2947C457.774 20.1962 457.483 18.9039 455.157 17.9669Z" fill="url(#paint8_linear)"/>
<path opacity="0.2" d="M862.06 209.174C860.057 208.366 856.697 207.882 852.981 207.978C847.23 208.14 842.771 209.626 843.062 211.274C846.067 228.721 839.088 244.747 822.417 258.252C814.081 265.005 803.322 271.143 790.204 276.571C777.086 281.967 761.61 286.652 743.711 290.529C740.803 291.143 737.831 291.757 734.826 292.338C715.376 296.086 694.245 298.768 671.693 300.416C637.898 302.903 600.839 303.065 561.938 301.094C523.038 299.091 482.296 294.923 441.328 288.784C436.287 288.041 429.922 288.623 427.111 290.141C425.108 291.207 425.464 292.467 427.693 293.372C428.565 293.728 429.728 294.018 431.15 294.244C487.821 302.774 544.621 307.717 598.319 308.493C625.168 308.881 651.209 308.202 675.99 306.393C700.772 304.583 724.261 301.611 745.843 297.443C749.203 296.797 752.499 296.118 755.73 295.44C775.6 291.143 792.757 285.941 807.134 280.028C828.685 271.143 844.064 260.61 853.434 248.914C862.836 237.218 866.26 224.392 863.934 210.822C863.837 210.143 863.159 209.626 862.06 209.174Z" fill="url(#paint9_linear)"/>
<path opacity="0.2" d="M698.187 83.4902C651.629 64.7185 599.514 48.6607 545.106 35.7693C540.711 34.7354 534.12 34.9616 530.372 36.2863C527.206 37.4171 527.109 38.9357 529.759 40.0019C530.243 40.1957 530.857 40.3896 531.536 40.5511C584.491 53.0871 635.507 68.8218 681.096 87.1735C691.693 91.4384 701.967 95.8647 711.919 100.388C769.3 126.623 808.071 153.989 827.974 179.804C828.265 180.192 828.846 180.548 829.622 180.871C831.98 181.808 836.18 182.292 840.445 181.969C846.067 181.549 849.621 179.869 848.361 178.254C827.877 151.695 788.233 123.748 729.657 96.9633C719.479 92.343 708.979 87.852 698.187 83.4902Z" fill="url(#paint10_linear)"/>
<defs>
<linearGradient id="paint0_linear" x1="326.23" y1="155.214" x2="326.23" y2="202.341" gradientUnits="userSpaceOnUse">
<stop stop-color="#13B72F"/>
<stop offset="1" stop-color="#006AFE"/>
</linearGradient>
<linearGradient id="paint1_linear" x1="292.187" y1="149.659" x2="292.187" y2="220.687" gradientUnits="userSpaceOnUse">
<stop stop-color="#13B72F"/>
<stop offset="1" stop-color="#006AFE"/>
</linearGradient>
<linearGradient id="paint2_linear" x1="563.707" y1="190.983" x2="563.707" y2="241.886" gradientUnits="userSpaceOnUse">
<stop stop-color="#13B72F"/>
<stop offset="1" stop-color="#006AFE"/>
</linearGradient>
<linearGradient id="paint3_linear" x1="247.439" y1="142.363" x2="247.439" y2="245.027" gradientUnits="userSpaceOnUse">
<stop stop-color="#13B72F"/>
<stop offset="1" stop-color="#006AFE"/>
</linearGradient>
<linearGradient id="paint4_linear" x1="275.397" y1="38.1255" x2="275.397" y2="116.135" gradientUnits="userSpaceOnUse">
<stop stop-color="#13B72F"/>
<stop offset="1" stop-color="#006AFE"/>
</linearGradient>
<linearGradient id="paint5_linear" x1="598.67" y1="198.312" x2="598.67" y2="270.41" gradientUnits="userSpaceOnUse">
<stop stop-color="#13B72F"/>
<stop offset="1" stop-color="#006AFE"/>
</linearGradient>
<linearGradient id="paint6_linear" x1="629.201" y1="67.6671" x2="629.201" y2="172.462" gradientUnits="userSpaceOnUse">
<stop stop-color="#13B72F"/>
<stop offset="1" stop-color="#006AFE"/>
</linearGradient>
<linearGradient id="paint7_linear" x1="188.127" y1="132.693" x2="188.127" y2="277.361" gradientUnits="userSpaceOnUse">
<stop stop-color="#13B72F"/>
<stop offset="1" stop-color="#006AFE"/>
</linearGradient>
<linearGradient id="paint8_linear" x1="228.836" y1="0" x2="228.836" y2="106.461" gradientUnits="userSpaceOnUse">
<stop stop-color="#13B72F"/>
<stop offset="1" stop-color="#006AFE"/>
</linearGradient>
<linearGradient id="paint9_linear" x1="645.217" y1="207.966" x2="645.217" y2="308.598" gradientUnits="userSpaceOnUse">
<stop stop-color="#13B72F"/>
<stop offset="1" stop-color="#006AFE"/>
</linearGradient>
<linearGradient id="paint10_linear" x1="688.246" y1="35.1215" x2="688.246" y2="182.069" gradientUnits="userSpaceOnUse">
<stop stop-color="#13B72F"/>
<stop offset="1" stop-color="#006AFE"/>
</linearGradient>
</defs>
</svg>
