<svg width="302" height="392" viewBox="0 0 302 392" fill="none" xmlns="http://www.w3.org/2000/svg">
<ellipse opacity="0.2" rx="61.9817" ry="14.8599" transform="matrix(-0.99896 0.0455894 0.0455894 0.99896 155.615 369.976)" fill="#3F3F3F"/>
<path d="M132.472 353.009C132.472 353.009 129.804 350.19 127.82 350.424C125.837 350.658 111.152 362.245 105.966 363.425C100.779 364.604 101.984 367.954 103.058 369.631C104.114 371.325 144.618 367.271 144.618 367.271C144.618 367.271 145.366 355.841 143.842 352.634C142.3 349.444 136.631 353.554 132.472 353.009Z" fill="#392543"/>
<path fill-rule="evenodd" clip-rule="evenodd" d="M144.77 363.664L102.135 367.208C102.223 368.116 102.65 368.994 103.058 369.631C104.114 371.325 144.618 367.271 144.618 367.271C144.618 367.271 144.718 365.751 144.77 363.664Z" fill="#006AFE"/>
<path d="M166.924 345.859L167.891 356.524L179.5 355.468L179.253 344.105L166.924 345.859Z" fill="#FFC5B3"/>
<path d="M173.712 353.815C173.712 353.815 179.301 352.357 180.837 352.366C182.373 352.376 192.631 363.207 196.105 363.814C202.405 364.918 202.348 374.245 198.52 374.75C187.414 376.21 168.438 371.95 168.438 371.95C168.438 371.95 166.76 360.006 167.554 356.235C168.35 352.482 170.611 354.946 173.712 353.815Z" fill="#392543"/>
<path fill-rule="evenodd" clip-rule="evenodd" d="M194.773 372.396L167.999 368.418C168.232 370.484 168.438 371.95 168.438 371.95C168.438 371.95 187.414 376.21 198.52 374.75C199.831 374.577 200.7 373.369 201.022 371.811C198.5 372.49 197.15 372.518 194.773 372.396Z" fill="#006AFE"/>
<path d="M43.214 110.175L40.105 121.322L46.5521 122.868C46.3874 115.719 47.4824 109.426 43.214 110.175Z" fill="#FFC5B3"/>
<path d="M45.8213 134.042C40.5991 132.84 29.9515 130.319 29.1392 129.854C28.3268 129.389 23.796 125.903 21.6321 124.218L24.3155 117.715L29.4287 113.943L37.7698 116.037L49.3387 123.998L45.8213 134.042Z" fill="#FFC5B3"/>
<path d="M123.023 82.9783C116.953 91.5717 93.3409 125.881 85.8549 129.922C76.1222 135.184 57.6925 124.097 46.1356 122.161C46.1438 122.356 41.6067 131.533 40.3731 132.892C40.3731 132.892 75.2118 155.553 91.7785 147.51C96.4586 145.239 107.14 137.023 121.676 119.879C126.088 114.681 136.017 104.469 138.138 96.7156C140.591 87.775 133.032 80.8614 123.023 82.9783Z" fill="#0AA124"/>
<path d="M119.15 278.708C120.914 301.509 123.244 352.103 123.244 352.103C131.735 353.753 136.488 353.454 144.802 351.119C144.445 343.277 149.156 275.535 149.175 258.764C149.203 234.111 164.068 210.546 161.369 191.77L152.278 196.284L150.585 196.551L120.656 193.628C119.175 223.567 116.509 244.577 119.15 278.708Z" fill="#0654C1"/>
<path d="M155.379 281.681C157.712 304.424 163.933 354.872 163.933 354.872C172.424 356.522 177.178 356.223 185.492 353.888C185.134 346.046 185.384 278.507 185.403 261.737C185.431 237.083 186.916 214.129 184.217 195.353L175.125 199.867L173.433 200.134L145.528 199.086C150.807 230.454 152.085 249.577 155.379 281.681Z" fill="#006AFE"/>
<path d="M159.307 66.9969C159.307 66.9969 174.692 70.1574 183.252 76.1726C191.813 82.1878 188.87 97.0688 189.956 108.734C182.184 160.075 187.298 207.941 175.613 205.343C163.176 213.201 119.101 201.267 120.857 189.434C122.614 177.601 123.897 155.822 120.553 127.336C121.408 108.158 115.932 95.865 117.481 87.7811C119.034 79.6797 143.492 67.9269 143.492 67.9269L159.307 66.9969Z" fill="#13B72F"/>
<path fill-rule="evenodd" clip-rule="evenodd" d="M123.205 127.629L151.631 116.071C146.478 125.287 147.271 123.333 143.042 127.185C133.959 135.459 123.781 145.492 125.809 188.471C125.996 189.782 125.882 192.951 127.013 194.536C128.188 196.183 129.206 198.002 129.446 199.513C123.88 196.495 120.334 192.96 120.857 189.434C121.89 182.477 122.075 172.385 122.313 159.342C122.481 150.2 122.674 139.608 123.205 127.629Z" fill="#0AA124"/>
<path d="M127.125 39.3544C128.47 51.3329 139.493 59.6967 151.748 58.0484C164.002 56.4001 172.836 45.3551 171.491 33.3766C170.146 21.398 159.123 13.0342 146.868 14.6825C134.611 16.3488 125.759 27.3922 127.125 39.3544Z" fill="#4C1B1B"/>
<path d="M169.719 27.4346C169.719 27.4346 171.665 19.8061 165.848 16.1356C160.032 12.465 156.062 14.326 151.053 11.2224C146.046 8.10063 124.331 6.75922 122.697 16.8242C121.041 26.9058 130.33 28.0467 130.33 28.0467L169.719 27.4346Z" fill="#4C1B1B"/>
<path d="M131.501 44.5115C131.501 44.5115 127.564 40.4188 125.37 44.5785C123.177 48.7383 127.972 59.4258 134.018 55.7795L131.501 44.5115Z" fill="#FFC5B3"/>
<path d="M159.788 62.0381L161.049 73.1553C161.049 73.1553 156.927 78.6849 152.376 79.6906C147.844 80.6979 144.454 75.7548 144.454 75.7548L143.254 65.0607L159.788 62.0381Z" fill="#FFC5B3"/>
<path d="M159.768 62.051L160.317 67.0082C157.613 70.7896 152.222 72.3672 143.969 72.2734L143.163 65.0854L159.768 62.051Z" fill="#EFB7A6"/>
<path d="M127.369 37.0184C127.678 40.2007 128.217 44.4003 129.28 48.6996C129.555 49.8115 129.864 50.9445 130.194 52.0611C132.651 60.0353 136.978 67.627 144.665 69.216C160.438 72.4645 165.52 60.5895 167.433 51.9952C167.63 51.1054 167.804 50.25 167.933 49.4632C168.1 48.5164 168.222 47.4751 168.314 46.3768C168.668 41.946 168.477 36.507 168.196 32.1483C167.881 27.1339 164.312 22.9808 159.358 21.8275C152.213 20.1765 141.538 19.5265 132.292 26.3447C128.844 28.8579 126.985 32.9048 127.369 37.0184Z" fill="#FFC5B3"/>
<path d="M139.326 58.2494L155.802 57.5833C155.802 57.5833 151.531 61.8108 147.779 61.9625C144.027 62.1142 139.326 58.2494 139.326 58.2494Z" fill="white"/>
<path d="M131.301 48.5778C130.644 46.4421 129.931 43.6815 130.049 42.1964C130.283 39.5724 132.292 37.7585 131.292 35.3924C130.293 33.0084 132.665 30.004 134.581 29.2944C136.498 28.5849 141.182 28.9171 145.463 26.2056C149.544 23.6226 157.199 24.0477 158.734 26.5877C160.577 29.6648 158.602 30.2417 163.045 33.252C164.813 34.4444 163.314 38.3813 163.308 40.8061C163.307 41.9184 163.355 42.4515 163.532 43.6338L163.61 44.2242L168.447 43.5667C168.556 39.8012 168.411 35.6674 168.183 32.2376C167.867 27.1954 164.283 23.0192 159.287 21.8759C152.092 20.2141 141.408 19.5635 132.085 26.4161C128.659 28.9462 126.774 33.0139 127.159 37.1503C127.449 40.3667 128.011 44.5731 129.078 48.8961L131.301 48.5778Z" fill="#4C1B1B"/>
<path d="M166.881 46.0123C166.742 44.7855 166.695 43.5481 166.793 42.3044C166.911 40.6088 167.248 39.0401 168.883 38.1036C170.186 37.3578 171.661 37.1339 172.848 38.5191C175.794 41.935 174.159 54.0822 167.598 52.2569L166.881 46.0123Z" fill="#FFC5B3"/>
<path d="M182.505 77.659C174.69 77.9197 173.351 88.3307 175.822 95.3285C181.029 110.073 188.109 131.278 188.203 137.384C188.362 147.825 183.303 179.002 180.938 194.755C180.504 197.598 191.26 195.756 191.26 195.756C191.26 195.756 202.245 151.969 202.601 134.333C202.701 129.351 200.919 109.16 195.789 93.3208C194.029 87.8881 192.361 84.4133 188.262 80.1483C186.515 78.3178 184.543 77.591 182.505 77.659Z" fill="#0AA124"/>
<path d="M192.715 193.812C191.869 198.318 190.08 207.51 189.692 208.227C189.304 208.944 186.313 212.994 184.867 214.929L178.725 213.022L174.982 208.894L176.494 201.687L183.26 191.4L192.715 193.812Z" fill="#FFC5B3"/>
</svg>
