<svg width="280" height="390" viewBox="0 0 280 390" fill="none" xmlns="http://www.w3.org/2000/svg">
<ellipse opacity="0.2" cx="147.827" cy="375.101" rx="80.1644" ry="14.6968" fill="#3F3F3F"/>
<path d="M170.606 357.073C170.606 357.073 173.17 354.103 175.184 354.248C177.198 354.393 192.563 365.418 197.855 366.371C203.147 367.323 202.085 370.761 201.078 372.504C200.089 374.264 158.996 372.036 158.996 372.036C158.996 372.036 157.714 360.527 159.106 357.218C160.516 353.925 166.431 357.815 170.606 357.073Z" fill="#392543"/>
<path fill-rule="evenodd" clip-rule="evenodd" d="M158.676 368.401L201.898 370.015C201.851 370.936 201.46 371.843 201.078 372.504C200.089 374.264 158.996 372.036 158.996 372.036C158.996 372.036 158.825 370.506 158.676 368.401Z" fill="#13B72F"/>
<path d="M135.48 351.44L134.995 362.255L123.222 361.724L122.948 350.237L135.48 351.44Z" fill="#FFC5B3"/>
<path d="M129.005 359.612C129.005 359.612 123.322 358.424 121.778 358.515C120.233 358.606 110.356 370.2 106.886 371.004C100.593 372.467 101.032 381.976 104.903 382.287C116.134 383.183 135.049 377.825 135.049 377.825C135.049 377.825 136.251 365.555 135.297 361.752C134.344 357.966 132.17 360.6 129.005 359.612Z" fill="#392543"/>
<path fill-rule="evenodd" clip-rule="evenodd" d="M108.576 379.686L135.347 374.2C135.197 376.32 135.049 377.825 135.049 377.825C135.049 377.825 116.134 383.183 104.903 382.287C103.577 382.181 102.654 380.995 102.266 379.423C104.831 379.981 106.19 379.937 108.576 379.686Z" fill="#13B72F"/>
<path d="M180.635 281.421C179.326 304.497 179.882 355.733 179.882 355.733C171.384 357.791 166.569 357.708 158.065 355.733C158.065 347.797 150.184 279.599 149.392 262.662C148.228 237.765 132.129 214.652 133.989 195.565L143.379 199.704L145.1 199.896L173.234 197.552C169.349 229.475 182.481 248.846 180.635 281.421Z" fill="#0AA124"/>
<path d="M144.183 286.092C142.875 309.169 138.917 360.404 138.917 360.404C130.418 362.462 125.603 362.38 117.099 360.404C117.099 352.468 113.733 284.27 112.941 267.334C111.777 242.437 109.219 219.323 111.08 200.237L120.469 204.376L122.191 204.568L150.325 202.224C146.439 234.146 146.03 253.517 144.183 286.092Z" fill="#13B72F"/>
<path d="M129.484 75.3688C129.484 75.3688 111.054 78.9824 102.683 85.4417C94.3129 91.901 101.95 101.297 101.38 113.104C111.543 164.488 103.458 211.286 115.137 208.126C128.047 215.469 170.742 207.359 168.435 195.515C166.128 183.67 170.923 146.261 176.527 114.93C174.798 95.6409 179.034 97.7212 177.106 89.6456C175.172 81.5526 148.284 76.2274 148.284 76.2274L129.484 75.3688Z" fill="#13B72F"/>
<path fill-rule="evenodd" clip-rule="evenodd" d="M124.5 76.4842C127.472 75.7311 129.463 75.3409 129.463 75.3409L148.287 76.2005C148.287 76.2005 150.585 76.6234 153.8 77.4532C152.617 89.5824 150.464 94.6641 137.91 93.6702C126.374 94.0422 124.88 88.6564 124.5 76.4842Z" fill="#006AFE"/>
<path fill-rule="evenodd" clip-rule="evenodd" d="M174.11 127.583L163.87 125.042C169.499 134.1 156.84 141.356 161.292 145.045C170.855 152.97 163.163 152.038 163.054 195.485C162.924 196.816 163.182 200.007 162.109 201.659C160.995 203.374 160.047 205.256 159.873 206.791C165.367 203.489 168.795 199.759 168.106 196.227C166.747 189.257 169.749 174.079 168.918 160.932C168.335 151.719 175.188 139.642 174.11 127.583Z" fill="#0AA124"/>
<path d="M161.597 40.0026C160.756 52.135 149.959 61.0923 137.48 60.0224C125.001 58.9525 115.578 48.2511 116.419 36.1187C117.26 23.9862 128.056 15.029 140.535 16.0989C153.017 17.1868 162.459 27.8857 161.597 40.0026Z" fill="black"/>
<path d="M118.129 29.7982C118.129 29.7982 114.677 22.6734 119.644 18.0136C120.436 14.8687 127.633 14.4263 126.334 10.6683C132.435 13.1083 139.325 11.5114 141.982 9.06055C144.318 6.89414 151.004 14.4252 151.821 12.0706C152.639 9.71601 162.142 10.8185 162.142 10.8185C159.02 15.2841 159.924 26.2587 160.797 33.3446L118.129 29.7982Z" fill="black"/>
<path d="M157.375 45.4887C157.375 45.4887 161.194 41.1745 163.596 45.2544C165.998 49.3344 161.592 60.3299 155.303 56.9566L157.375 45.4887Z" fill="#FFC5B3"/>
<path d="M129.61 64.5092L128.816 75.7693C128.816 75.7693 133.229 81.1411 137.881 81.9348C142.513 82.7311 145.731 77.588 145.731 77.588L146.482 66.757L129.61 64.5092Z" fill="#FFC5B3"/>
<path d="M129.625 64.5176L129.285 69.5346C132.185 73.2112 137.708 74.5397 146.053 74.0479L146.557 66.7728L129.625 64.5176Z" fill="#EFB7A6"/>
<path d="M161.272 37.6849C161.098 40.9066 160.734 45.1648 159.845 49.5485C159.615 50.6822 159.35 51.8389 159.065 52.9801C156.924 61.1344 152.872 68.9933 145.155 70.9649C129.322 74.9984 123.658 63.2763 121.347 54.7077C121.109 53.8205 120.895 52.9668 120.73 52.1802C120.52 51.234 120.351 50.1906 120.21 49.0882C119.659 44.6402 119.615 39.1499 119.711 34.7439C119.811 29.6755 123.245 25.3183 128.213 23.9174C135.377 21.9094 146.16 20.7401 155.821 27.1657C159.423 29.5322 161.481 33.5209 161.272 37.6849Z" fill="#FFC5B3"/>
<path d="M150.102 59.7902L133.446 59.9136C133.446 59.9136 137.927 63.7634 141.72 63.7353C145.513 63.7072 150.102 59.7902 150.102 59.7902Z" fill="white"/>
<path d="M157.753 49.4869C158.325 47.3046 158.927 44.4902 158.742 43.0004C158.392 40.3692 156.279 38.6394 157.189 36.2085C158.096 33.7596 155.566 30.8483 153.595 30.2262C151.624 29.6041 146.898 30.1643 142.447 27.6401C138.205 25.2357 130.476 26.0326 129.032 28.6644C127.301 31.852 129.325 32.3377 124.958 35.5834C123.221 36.8693 124.909 40.7616 125.021 43.2032C125.07 44.3233 125.044 44.8624 124.917 46.0615L124.863 46.6598L119.939 46.2308C119.666 42.4441 119.305 38.3221 119.386 34.8572C119.487 29.7644 123.302 24.3061 128.309 22.9139C135.519 20.8937 146.263 20.7559 155.996 27.2073C159.574 29.5901 161.658 33.5956 161.448 37.7796C161.295 41.0325 160.908 45.2955 160.016 49.7004L157.753 49.4869Z" fill="black"/>
<path d="M121.718 48.6015C121.806 47.3585 121.801 46.1093 121.647 44.8609C121.455 43.1581 121.045 41.5937 119.345 40.7299C117.99 40.042 116.483 39.8884 115.337 41.3421C112.493 44.928 114.677 57.0886 121.259 54.9291L121.718 48.6015Z" fill="#FFC5B3"/>
<path fill-rule="evenodd" clip-rule="evenodd" d="M92.2528 97.0544C89.9632 105.271 87.6246 115.377 86.867 123.21L107.311 126.169C115.388 118.907 118.652 113.755 121.597 102.056C120.667 92.1994 119.893 86.7551 118.293 77.115C111.34 79.4855 107.514 81.1051 100.923 84.9755C100.923 84.9755 93.8057 91.4833 92.2528 97.0544Z" fill="#006AFE"/>
<path d="M95.5435 197.662C96.4235 181.616 97.7897 149.784 100.085 139.491C100.689 136.787 102.674 130.616 106.126 124.216L88.3918 122.283C85.813 129.52 86.8906 131.171 86.4354 133.615C83.1789 151.124 85.1058 196.602 85.1058 196.602C85.1058 196.602 95.3915 200.56 95.5435 197.662Z" fill="#FFC5B3"/>
<path d="M175.497 87.661C172.343 85.2678 173.374 91.1133 174.619 98.165C175.77 104.691 176.778 112.163 175.145 115.181C167.41 113.457 163.368 112.673 158.837 101.312L157.659 79.1602C167.044 81.707 170.55 83.4321 175.497 87.661Z" fill="#006AFE"/>
<path fill-rule="evenodd" clip-rule="evenodd" d="M181.874 131.207C179.56 126.53 178.383 120.351 175.145 115.181C176.778 112.163 175.77 104.691 174.619 98.165C173.374 91.1133 172.343 85.2678 175.497 87.661C176.947 88.7535 178.274 89.613 179.502 90.4087C182.566 92.3932 185.018 93.9813 187.225 97.7983C188.47 99.9511 189.822 102.163 191.19 104.399C194.711 110.157 198.334 116.08 200.479 121.597L181.874 131.207Z" fill="#006AFE"/>
<path d="M205.884 192.359C200.908 176.717 199.944 155.541 195.057 145.74C193.068 141.75 187.463 134.532 183.871 129.966L199.184 121.762C203.733 128.746 204.778 135.882 205.877 138.28C213.554 155.04 215.83 189.92 215.83 189.92C215.83 189.92 206.776 195.184 205.884 192.359Z" fill="#FFC5B3"/>
<path d="M208.13 184.592C205.026 188.034 198.734 195.108 198.396 195.86C198.058 196.611 196.635 201.498 195.967 203.848L201.265 207.616L206.878 208.094L211.745 202.46L215.866 190.714L208.13 184.592Z" fill="#FFC5B3"/>
<path d="M107.04 183.712L72.4973 234.92L75.1122 236.684L109.654 185.476L107.04 183.712Z" fill="#7F7F7F"/>
<path d="M113.161 223.628L69.2502 190.616L67.3549 193.138L111.266 226.149L113.161 223.628Z" fill="#7F7F7F"/>
<path d="M66.5021 194.447L60.9822 189.716L64.925 184.984L70.445 189.716C71.7592 190.767 72.0221 192.87 70.9707 194.184C69.6564 195.236 67.8164 195.499 66.5021 194.447Z" fill="#7F7F7F"/>
<path d="M113.817 222.047L119.336 226.778L115.394 231.51L109.874 226.778C108.559 225.727 108.297 223.624 109.348 222.31C110.399 221.258 112.502 220.995 113.817 222.047Z" fill="#7F7F7F"/>
<path d="M76.2282 238.081L72.2854 244.127L67.0283 240.71L70.9711 234.664C71.7597 233.087 73.8625 232.824 75.1768 233.612C76.7539 234.664 77.2797 236.504 76.2282 238.081Z" fill="#7F7F7F"/>
<path d="M105.668 183.407L109.611 177.362L114.868 180.779L110.925 186.824C110.136 188.401 108.034 188.664 106.719 187.876C105.142 186.561 104.879 184.721 105.668 183.407Z" fill="#7F7F7F"/>
<path d="M85.2326 194.952C84.6429 199.549 83.5011 208.947 83.6512 209.758C83.8014 210.568 85.4163 215.395 86.2049 217.707L92.706 217.786L97.5918 214.981L98.3824 207.578L95.078 195.576L85.2326 194.952Z" fill="#FFC5B3"/>
<path d="M207.331 293.477L187.88 295.843C183.149 296.368 178.943 293.214 178.417 288.483L166.589 193.329C166.063 188.598 169.217 184.392 173.949 183.866L193.4 181.501C198.131 180.975 202.337 184.129 202.863 188.861L214.691 284.014C215.217 288.745 211.8 292.951 207.331 293.477Z" fill="#191919"/>
<path d="M185.189 182.519L182.581 182.841L196.372 294.76L198.98 294.438L185.189 182.519Z" fill="black"/>
<path d="M190.973 181.858L189.929 181.987L203.709 293.906L204.753 293.777L190.973 181.858Z" fill="black"/>
<path d="M195.173 181.37L194.13 181.498L207.932 293.417L208.976 293.289L195.173 181.37Z" fill="black"/>
<path d="M173.611 183.983L172.567 184.112L186.37 296.031L187.413 295.902L173.611 183.983Z" fill="black"/>
<path d="M177.815 183.446L176.771 183.574L190.551 295.493L191.594 295.365L177.815 183.446Z" fill="black"/>
</svg>
