<svg width="24" height="18" viewBox="0 0 24 18" fill="none" xmlns="http://www.w3.org/2000/svg">
<path d="M2.25002 0H21.75C22.9907 0 24 1.00928 24 2.25001V15.75C24 16.9907 22.9907 18 21.75 18H2.25002C1.00928 18 0 16.9907 0 15.75V2.25001C0 1.00928 1.00928 0 2.25002 0ZM2.25002 1.49999C2.14812 1.49999 2.05118 1.52113 1.96255 1.55806L12 10.2576L22.0375 1.55806C21.9489 1.52118 21.8519 1.49999 21.75 1.49999H2.25002ZM2.25002 16.5H21.75C22.1638 16.5 22.5 16.1638 22.5 15.7499V3.14281L12.4915 11.8169C12.3501 11.9392 12.175 12 12 12C11.825 12 11.6499 11.9392 11.5085 11.8169L1.49999 3.14281V15.75C1.50004 16.1638 1.8362 16.5 2.25002 16.5Z" fill="white"/>
</svg>
