<svg width="545" height="538" viewBox="0 0 545 538" fill="none" xmlns="http://www.w3.org/2000/svg">
<path d="M267.97 434.066L354.009 344.86L435.826 428.436L267.97 434.066Z" fill="#EBEBEB"/>
<path fill-rule="evenodd" clip-rule="evenodd" d="M384.976 494.354L435.826 441.632L267.971 447.263L314.071 494.354L384.976 494.354Z" fill="#EBEBEB"/>
<path fill-rule="evenodd" clip-rule="evenodd" d="M437.761 266.347L370.02 333.423L437.761 405.983V266.347Z" fill="#EBEBEB"/>
<path d="M270.785 307.911L321.635 358.76L221.168 462.394L174.717 406.794L270.785 307.911Z" fill="#EBEBEB"/>
<path d="M206.74 506.558L236.3 480.342L277.296 528.728H206.74V510.253" fill="#EBEBEB"/>
<path d="M124.164 362.317V323.05C124.164 314.534 131.26 307.911 139.303 307.911H301.574C310.09 307.911 316.713 315.007 316.713 323.05V362.317C316.713 370.833 309.617 377.456 301.574 377.456H139.303C131.26 377.456 124.164 370.833 124.164 362.317Z" fill="#191919"/>
<path d="M316.946 345.548V340.344L124.396 340.344V345.548L316.946 345.548Z" fill="black"/>
<path d="M317.038 356.521V354.629L124.489 354.629V356.521L317.038 356.521Z" fill="black"/>
<path d="M317.122 364.647V362.754L124.572 362.754V364.647L317.122 364.647Z" fill="black"/>
<path d="M317.154 323.047V321.154L124.604 321.154V323.047L317.154 323.047Z" fill="black"/>
<path d="M317.237 331.172V329.28L124.688 329.28V331.172L317.237 331.172Z" fill="black"/>
<path opacity="0.6" d="M316.715 363.736C315.769 363.736 315.296 363.736 314.35 363.736H152.078C143.563 363.736 136.939 356.64 136.939 348.597V309.33C136.939 308.857 136.939 308.384 136.939 307.911C129.37 308.857 123.693 315.481 123.693 323.05V362.317C123.693 370.833 130.789 377.456 138.832 377.456H301.103C309.619 377.456 316.242 371.306 316.715 363.736Z" fill="#191919"/>
<path d="M125.923 432.697V393.43C125.923 384.914 133.02 378.291 141.062 378.291H303.334C311.85 378.291 318.473 385.387 318.473 393.43V432.697C318.473 441.212 311.377 447.836 303.334 447.836H141.062C133.02 447.836 125.923 441.212 125.923 432.697Z" fill="#191919"/>
<path d="M318.705 415.927V410.723L126.156 410.723V415.927L318.705 415.927Z" fill="black"/>
<path d="M318.797 426.901V425.008L126.248 425.008V426.901L318.797 426.901Z" fill="black"/>
<path d="M318.881 435.027V433.134L126.331 433.134V435.027L318.881 435.027Z" fill="black"/>
<path d="M318.913 393.426V391.534L126.363 391.534V393.426L318.913 393.426Z" fill="black"/>
<path d="M318.996 401.552V399.66L126.447 399.66V401.552L318.996 401.552Z" fill="black"/>
<path opacity="0.6" d="M318.475 434.116C317.528 434.116 317.055 434.116 316.109 434.116H153.838C145.322 434.116 138.699 427.019 138.699 418.977V379.71C138.699 379.237 138.699 378.764 138.699 378.291C131.129 379.237 125.452 385.86 125.452 393.43V432.697C125.452 441.212 132.548 447.836 140.591 447.836H302.862C311.378 447.836 318.001 441.685 318.475 434.116Z" fill="#191919"/>
<path d="M127.683 503.076V463.809C127.683 455.294 134.779 448.67 142.822 448.67H305.093C313.609 448.67 320.232 455.767 320.232 463.809V503.076C320.232 511.592 313.136 518.215 305.093 518.215H142.822C134.779 518.215 127.683 511.592 127.683 503.076Z" fill="#191919"/>
<path d="M320.465 486.307V481.103L127.915 481.103V486.307L320.465 486.307Z" fill="black"/>
<path d="M320.557 497.281V495.388L128.008 495.388V497.281L320.557 497.281Z" fill="black"/>
<path d="M320.641 505.406V503.514L128.091 503.514V505.406L320.641 505.406Z" fill="black"/>
<path d="M320.673 463.806V461.914L128.123 461.914V463.806L320.673 463.806Z" fill="black"/>
<path d="M320.756 471.932V470.039L128.206 470.039V471.932L320.756 471.932Z" fill="black"/>
<path opacity="0.6" d="M320.234 504.496C319.288 504.496 318.815 504.496 317.869 504.496H155.597C147.081 504.496 140.458 497.399 140.458 489.357V450.09C140.458 449.617 140.458 449.144 140.458 448.67C132.889 449.617 127.211 456.24 127.211 463.809V503.076C127.211 511.592 134.308 518.215 142.351 518.215H304.622C313.138 518.215 319.761 512.065 320.234 504.496Z" fill="#191919"/>
<path d="M208.509 239.974C201.471 201.441 196.721 195.635 192.85 182.263C188.979 169.242 182.645 160.445 174.727 157.454C169.449 155.342 142.88 145.841 133.731 149.008C123.526 152.527 114.552 157.63 108.218 161.853C102.06 165.899 97.3094 171.882 94.8461 178.92L80.5942 218.684L105.403 243.317L117.895 216.925L131.444 248.595L129.508 280.618L206.75 301.38C213.612 289.943 212.556 261.792 208.509 239.974Z" fill="#006AFE"/>
<path fill-rule="evenodd" clip-rule="evenodd" d="M202.021 210.259C203.952 217.4 206.096 226.764 208.509 239.974C212.556 261.792 213.612 289.943 206.75 301.38L129.508 280.618L131.444 248.595L117.895 216.925L114.016 205.861L119.294 194.424L105.403 163.916C106.304 163.182 107.243 162.493 108.218 161.853C108.671 161.551 109.138 161.244 109.617 160.934C109.617 160.934 119.294 191.216 142.168 182.263C165.041 173.31 158.003 151.888 158.003 151.888C160.393 152.562 162.707 153.271 164.828 153.956C163.883 195.217 169.686 210.461 202.021 210.259Z" fill="#13B72F"/>
<g opacity="0.2">
<g opacity="0.2">
<path opacity="0.2" d="M188.451 197.922C185.108 217.98 184.58 220.795 181.061 240.854C179.83 247.716 176.487 258.449 171.56 263.375C167.865 267.07 164.346 270.589 159.419 271.821C154.669 272.876 147.631 273.052 143.232 271.117C138.833 269.182 135.139 260.56 136.898 256.161C143.408 257.569 145.52 259.68 151.15 256.161C156.076 252.994 163.114 246.132 165.754 240.854C176.838 219.036 180.006 218.332 188.451 197.922Z" fill="black"/>
</g>
</g>
<path d="M132.499 236.807C132.323 236.807 131.092 234.872 129.156 231.529C127.045 228.01 124.23 223.435 121.238 218.508C118.071 213.582 115.256 209.183 113.145 205.664C111.033 202.321 109.802 200.386 109.802 200.21C109.802 200.21 110.33 200.562 110.857 201.441C111.561 202.321 112.441 203.553 113.497 205.136C115.784 208.303 118.775 212.878 121.942 217.805C125.109 222.907 127.749 227.482 129.684 231.001C130.564 232.76 131.443 234.168 131.795 235.048C132.323 236.279 132.499 236.807 132.499 236.807Z" fill="#263238"/>
<path d="M186.339 272.701C186.339 272.701 185.636 273.053 184.58 273.404C184.052 273.58 183.172 273.756 182.469 273.932C181.589 274.108 180.709 274.46 179.477 274.636C177.19 274.988 174.551 275.34 171.736 275.34C168.745 275.34 165.577 275.164 162.058 274.46C158.715 273.756 155.548 272.877 152.733 271.821C149.918 270.765 147.631 269.534 145.695 268.478C144.64 267.95 143.936 267.422 143.232 266.894C142.528 266.366 141.824 266.015 141.472 265.487C140.417 264.783 139.889 264.255 140.065 264.255C140.241 264.079 142.352 265.839 146.223 267.95C148.158 269.006 150.622 270.061 153.261 271.117C156.076 272.173 159.067 273.053 162.41 273.58C165.753 274.108 168.92 274.46 171.912 274.46C174.903 274.46 177.366 274.284 179.653 273.932C183.7 273.404 186.339 272.525 186.339 272.701Z" fill="#263238"/>
<path d="M155.372 212.702C155.197 213.406 146.927 229.945 146.927 229.945L107.69 209.359L103.643 192.468C102.94 189.829 101.356 187.541 99.0688 186.134C96.6055 184.55 93.6144 184.022 90.9751 184.726L79.3625 189.477C78.4827 189.829 77.603 190.708 77.427 191.764C77.2511 192.644 77.427 193.523 79.0106 193.348C81.8258 193.172 87.808 192.468 87.808 192.468L84.9928 202.145C84.2891 204.608 84.641 207.423 85.6966 209.711L87.4561 213.054L91.327 219.212C91.327 219.212 129.508 258.273 150.798 260.912C163.642 262.496 178.246 226.426 178.246 226.426L155.372 212.702Z" fill="#FFC5B3"/>
<path d="M171.55 159.059C153.955 162.578 158.354 188.97 151.316 210.084L181.061 227.833L191.794 196.866C191.794 196.866 195.479 157.828 171.55 159.059Z" fill="#006AFE"/>
<path d="M206.574 301.204C206.574 301.204 196.369 314.4 186.516 317.919C174.199 322.494 83.5856 365.25 83.5856 365.25C83.5856 365.25 67.2224 487.358 68.454 482.256L40.996 476.822L34.4958 368.945C35.0237 354.517 46.4604 337.978 58.9528 330.588L142.88 280.618L206.574 301.204Z" fill="#13B72F"/>
<path d="M34.1439 389.531C34.1439 389.531 34.3198 389.003 34.3198 387.947C34.3198 386.891 34.4958 385.308 34.4958 383.548C34.6717 379.677 34.8477 374.223 36.0793 367.361C37.135 360.675 39.2464 352.581 44.3489 345.016C46.8122 341.321 50.1553 337.978 54.0261 334.986C57.897 331.995 62.2957 329.356 66.8704 326.893C85.1691 316.512 100.995 306.329 112.608 298.939C118.414 295.244 122.637 292.956 125.804 291.021C127.388 290.141 132.842 287.15 133.722 286.622C134.601 286.094 142.519 280.464 142.519 280.464C142.519 280.464 130.564 286.776 129.684 287.304C128.804 287.832 127.397 288.536 125.813 289.416C122.47 291.351 117.72 294.166 111.737 297.685C99.9488 304.899 84.1134 315.28 65.9907 325.837C61.416 328.476 57.0173 331.116 52.9704 334.107C48.9236 337.098 45.5806 340.617 42.9413 344.488C37.8388 352.229 35.9034 360.499 34.8477 367.185C33.792 374.047 33.792 379.677 33.792 383.548C33.792 385.308 33.792 386.891 33.792 387.947C33.9679 389.003 33.9679 389.531 34.1439 389.531Z" fill="#455A64"/>
<path d="M117.544 156.75C117.016 153.407 116.84 150.944 116.84 150.944C116.84 150.944 105.579 150.944 101.005 136.868C98.7174 129.83 97.1338 118.041 96.2541 108.364C95.3744 99.5666 102.06 92.0008 110.858 91.4729L140.945 89.8894L141.649 94.64L149.567 152.527C150.798 161.325 144.64 169.418 135.667 170.65C126.869 171.706 118.776 165.548 117.544 156.75Z" fill="#FFC5B3"/>
<path d="M100.477 116.634C100.653 117.689 101.533 118.393 102.588 118.217C103.644 118.041 104.348 117.162 104.172 116.282C103.996 115.226 103.116 114.522 102.061 114.698C101.181 114.698 100.301 115.578 100.477 116.634Z" fill="#263238"/>
<path d="M99.7735 113.995C100.125 114.17 101.357 112.939 103.292 112.587C105.228 112.235 106.811 113.115 106.987 112.763C107.163 112.587 106.811 112.235 106.108 111.883C105.404 111.531 104.348 111.179 103.117 111.531C101.885 111.707 100.829 112.411 100.301 112.939C99.7735 113.467 99.5976 113.819 99.7735 113.995Z" fill="#263238"/>
<path d="M119.304 113.467C119.48 114.522 120.359 115.226 121.415 115.05C122.471 114.874 123.175 113.994 122.999 113.115C122.823 112.059 121.943 111.355 120.887 111.531C120.008 111.531 119.304 112.411 119.304 113.467Z" fill="#263238"/>
<path d="M119.303 111.179C119.655 111.355 120.887 110.124 122.822 109.772C124.758 109.42 126.341 110.3 126.517 109.948C126.693 109.772 126.341 109.42 125.637 109.068C124.934 108.716 123.878 108.364 122.646 108.716C121.415 108.892 120.359 109.596 119.831 110.124C119.303 110.652 119.127 111.179 119.303 111.179Z" fill="#263238"/>
<path d="M114.553 127.191C114.553 127.015 113.321 127.015 111.21 127.191C110.682 127.191 110.154 127.19 109.978 126.839C109.802 126.487 109.978 125.959 110.154 125.255C110.506 124.023 110.682 122.616 111.034 121.208C112.266 115.402 112.969 110.651 112.793 110.475C112.617 110.475 111.386 115.05 110.154 121.032C109.802 122.44 109.626 123.847 109.274 125.079C109.099 125.607 108.923 126.311 109.274 127.191C109.45 127.542 109.802 127.718 110.154 127.718C110.506 127.718 110.858 127.718 111.034 127.718C113.145 127.366 114.553 127.191 114.553 127.191Z" fill="#263238"/>
<path d="M116.84 150.944C116.84 150.944 126.693 150.064 135.315 142.674C135.315 142.674 132.148 153.231 117.544 154.287L116.84 150.944Z" fill="#AA6550"/>
<path d="M120.535 127.542C120.183 127.542 120.535 129.654 118.951 131.589C117.368 133.349 115.081 133.525 115.081 133.877C115.081 134.053 115.608 134.229 116.664 134.053C117.544 133.877 118.951 133.349 120.007 132.293C121.063 131.237 121.239 129.83 121.239 128.95C121.063 128.07 120.711 127.542 120.535 127.542Z" fill="#263238"/>
<path d="M117.544 103.614C117.896 104.141 119.832 103.614 122.119 103.438C124.582 103.262 126.518 103.614 126.694 103.086C126.869 102.91 126.342 102.382 125.462 102.03C124.582 101.678 123.351 101.326 121.943 101.326C120.535 101.326 119.304 101.854 118.424 102.382C117.896 102.734 117.544 103.262 117.544 103.614Z" fill="#263238"/>
<path d="M99.5973 108.188C99.9492 108.54 101.357 107.836 102.94 107.66C104.524 107.308 106.107 107.484 106.283 106.956C106.459 106.78 106.107 106.253 105.404 105.901C104.7 105.549 103.644 105.373 102.588 105.549C101.533 105.725 100.477 106.253 100.125 106.956C99.4213 107.484 99.4213 107.836 99.5973 108.188Z" fill="#263238"/>
<path d="M94.6705 102.03C94.6705 102.03 102.588 104.669 111.738 98.5109C117.72 94.4641 125.11 92.0008 126.869 93.0565C128.629 94.1122 129.86 100.622 136.546 101.854C136.546 101.854 137.778 114.522 142.705 113.467C146.224 112.763 144.112 98.6868 142.705 90.7691C142.177 87.6021 139.362 85.3147 136.195 85.1388L126.869 84.7869L115.257 87.954L102.764 91.297L93.2629 95.1679L94.6705 102.03Z" fill="#263238"/>
<path d="M141.473 108.364C141.649 108.188 149.391 104.141 150.798 112.587C152.206 121.032 143.585 120.68 143.409 120.504C143.409 120.153 141.473 108.364 141.473 108.364Z" fill="#B78876"/>
<path d="M145.52 116.81C145.52 116.81 145.696 116.81 145.872 116.986C146.048 116.986 146.576 116.986 146.928 116.81C147.807 116.282 148.335 114.874 147.983 113.291C147.807 112.587 147.631 111.883 147.28 111.179C146.928 110.651 146.4 110.3 146.048 110.3C145.52 110.3 145.344 110.651 145.168 110.827C145.168 111.003 145.168 111.179 145.168 111.179C145.168 111.179 144.992 111.003 144.992 110.651C144.992 110.476 144.992 110.3 145.168 110.124C145.344 109.948 145.696 109.772 145.872 109.772C146.576 109.772 147.28 110.124 147.631 110.827C148.159 111.355 148.335 112.235 148.511 113.115C148.687 114.874 148.159 116.458 146.928 117.162C146.4 117.338 145.872 117.338 145.52 117.162C145.52 116.986 145.52 116.81 145.52 116.81Z" fill="#AA6550"/>
<path d="M98.7178 80.74C98.7178 80.74 99.0697 81.2679 99.5975 81.7957C100.125 82.4995 101.181 83.3792 102.765 83.9071C104.348 84.4349 106.284 84.6109 108.395 84.083C110.506 83.7311 112.794 82.8514 115.081 81.9716C117.544 81.0919 120.008 80.5641 122.295 80.74C124.582 80.916 126.518 81.9717 127.749 83.2033C128.981 84.4349 129.333 85.8425 129.509 86.8982C129.509 87.9539 129.333 88.3058 129.333 88.3058C129.333 88.3058 129.333 87.778 129.157 86.8982C128.981 86.0185 128.453 84.7868 127.397 83.5552C126.342 82.4995 124.406 81.6198 122.295 81.4438C120.184 81.2679 117.896 81.9717 115.433 82.6754C112.97 83.5552 110.682 84.4349 108.571 84.7868C106.284 85.1387 104.172 84.9628 102.589 84.259C101.005 83.5552 99.9494 82.6754 99.4216 81.7957C98.8937 81.2679 98.7178 80.74 98.7178 80.74Z" fill="#455A64"/>
<path d="M101.004 231.705L60.1843 196.867L46.6362 199.858C46.6362 199.858 60.8881 229.418 71.0932 240.15C71.0932 240.15 81.2982 253.698 98.0134 247.892C114.904 242.086 101.004 231.705 101.004 231.705Z" fill="#FFC5B3"/>
<path d="M57.0173 158.51H39.5983C36.9591 158.51 34.6717 161.501 35.5515 163.964L52.9704 197.922C53.6742 199.154 55.0818 200.034 56.4894 200.034H77.6033C80.0666 199.682 80.9463 197.043 79.8907 195.635L62.9995 162.381C62.1198 160.093 59.6565 158.51 57.0173 158.51Z" fill="#455A64"/>
<path d="M55.9613 160.621H38.5423C36.4309 160.621 35.0233 162.908 35.9031 164.844L52.9701 198.098C53.6739 199.33 55.0815 200.21 56.4891 200.21H77.427C78.6587 200.21 79.5384 198.802 79.0106 197.746L62.1195 164.492C61.0638 162.029 58.6005 160.621 55.9613 160.621Z" fill="#263238"/>
<path d="M54.3785 174.521L43.8215 178.744L41.5342 187.19L46.6367 199.858L65.2873 202.497L59.8329 196.867L60.5367 191.94C60.5367 191.94 65.8152 190.357 65.8152 189.477C65.9911 188.597 65.1114 185.958 64.4076 185.958C63.5278 185.782 58.0734 187.894 58.0734 187.894C58.0734 187.894 64.5835 182.791 64.4076 181.911C64.2316 181.032 63.5278 178.92 62.2962 178.744C61.0645 178.568 50.5076 183.495 50.5076 183.495L48.7481 187.366L47.3405 181.208C47.5164 181.384 56.6658 178.744 54.3785 174.521Z" fill="#FFC5B3"/>
<path d="M48.0439 166.955C48.0439 168.187 49.0996 169.243 50.3313 169.243C51.5629 169.243 52.6186 168.187 52.6186 166.955C52.6186 165.724 51.5629 164.668 50.3313 164.668C49.0996 164.844 48.0439 165.724 48.0439 166.955Z" fill="#FAFAFA"/>
<path d="M87.8454 120.716C94.3773 135.73 112.939 143.24 129.313 137.507C145.686 131.773 153.65 114.959 147.118 99.9443C140.586 84.9299 122.024 77.4196 105.65 83.1533C89.2812 88.9108 81.2915 105.728 87.8454 120.716Z" fill="black"/>
<path d="M141.98 92.7672C141.98 92.7672 141.709 82.3827 132.2 79.3735C129.09 76.0019 119.501 79.2368 118.684 74.0329C112.425 80.1637 102.465 81.8485 97.4058 80.289C92.9515 78.9034 89.3154 91.4695 86.6961 89.0631C84.0767 86.6567 72.535 92.9584 72.535 92.9584C79.5311 96.7002 82.8448 101.789 86.4206 110.777L141.98 92.7672Z" fill="black"/>
<path d="M96.3658 125.81C96.3658 125.81 89.3733 121.761 87.8933 127.777C86.4133 133.794 97.0667 146.051 104.081 139.511L96.3658 125.81Z" fill="#FFC5B3"/>
<path d="M148.005 137.066L148.789 144.885C146.51 150.532 130.913 160.686 117.698 157.319L116.04 148.637L148.005 137.066Z" fill="#EFB7A6"/>
<path d="M87.4832 117.635C89.1519 121.639 91.5377 126.886 94.6887 132.106C95.5041 133.456 96.3755 134.823 97.2687 136.163C103.788 145.702 112.755 154.198 124.05 153.977C147.218 153.51 149.648 136.728 148.955 125.103C148.882 123.899 148.79 122.747 148.663 121.696C148.526 120.429 148.29 119.052 147.989 117.611C146.755 111.804 144.37 104.86 142.281 99.3331C139.89 92.9719 133.315 88.6786 125.986 88.6543C115.42 88.6354 100.343 90.9449 90.1601 102.446C86.3508 106.697 85.3474 112.453 87.4832 117.635Z" fill="#FFC5B3"/>
<path d="M97.215 131.315C95.4719 128.763 93.4074 125.424 92.9942 123.48C92.2975 120.038 94.3809 117.114 92.0714 114.367C89.758 111.596 91.8804 107.035 94.2651 105.558C96.6498 104.081 103.281 103.128 108.169 98.3799C112.829 93.8566 123.621 92.147 126.741 94.9598C130.497 98.3725 127.979 99.6962 135.319 102.257C138.237 103.269 137.688 108.771 138.623 111.891C139.054 113.321 139.329 113.992 140.034 115.46L140.373 116.196L146.832 113.925C145.517 109.052 143.707 103.78 142.057 99.4382C139.656 93.0493 133.159 88.0852 125.779 88.0878C115.144 88.0718 99.9558 91.036 89.6801 102.593C85.9078 106.856 84.8744 112.641 87.0188 117.845C88.6722 121.894 91.0896 127.136 94.2533 132.379L97.215 131.315Z" fill="black"/>
<path d="M145.798 117.93C145.143 116.394 144.611 114.816 144.278 113.186C143.801 110.969 143.677 108.847 145.589 107.145C147.115 105.788 149.074 105.051 151.241 106.472C156.612 109.97 158.927 126.098 149.147 125.747L145.798 117.93Z" fill="#FFC5B3"/>
<path d="M49.9716 477.643C49.9716 477.643 46.1623 472.883 43.0366 473.139C39.8975 473.372 15.2145 491.111 6.8918 492.647C-1.43089 494.182 -1.12937 503.542 2.12469 504.525C5.82298 505.637 67.269 503.017 67.269 503.017C67.269 503.017 69.839 483.158 67.89 477.866C65.9018 472.565 56.412 478.813 49.9716 477.643Z" fill="#392543"/>
<path fill-rule="evenodd" clip-rule="evenodd" d="M2.12469 504.525C0.76577 504.114 -0.0782394 502.243 0.00572205 500.091L67.8097 498.208C67.5224 501.059 67.269 503.017 67.269 503.017C67.269 503.017 5.82298 505.637 2.12469 504.525Z" fill="#006AFE"/>
<path d="M142.519 280.464C142.519 280.464 61.768 246.66 36.6073 245.252C20.7719 244.372 8.80732 254.402 11.0947 270.765C12.1504 278.859 42.756 369.493 42.756 369.493L65.6294 358.936L52.4427 292.758L92.3736 309.496L142.519 280.464Z" fill="#0AA124"/>
<path d="M42.2379 276.043C41.886 276.219 44.7012 279.738 47.5164 284.313C50.3316 288.887 52.267 292.934 52.6189 292.758C52.9708 292.582 51.5632 288.36 48.5721 283.785C45.5809 279.034 42.4138 275.867 42.2379 276.043Z" fill="#455A64"/>
<path d="M35.5519 279.914C35.376 280.266 39.4228 282.905 44.3494 286.424C49.1 289.943 52.9709 293.11 53.1468 292.934C53.3228 292.758 49.9797 289.063 45.0532 285.544C40.1266 281.673 35.7279 279.562 35.5519 279.914Z" fill="#455A64"/>
<path d="M49.5707 362.409C49.5707 362.409 44.1227 359.899 41.3899 361.514C38.6354 363.115 23.6163 389.74 16.6963 394.794C9.77624 399.847 13.9575 407.975 17.324 407.397C21.1483 406.736 75.8776 377.123 75.8776 377.123C75.8776 377.123 69.9222 358.45 65.9425 354.645C61.9231 350.849 55.9103 360.581 49.5707 362.409Z" fill="#392543"/>
<path fill-rule="evenodd" clip-rule="evenodd" d="M17.324 407.397C15.9181 407.639 14.3701 406.362 13.5479 404.424L74.3615 372.638C75.2904 375.282 75.8776 377.123 75.8776 377.123C75.8776 377.123 21.1483 406.736 17.324 407.397Z" fill="#006AFE"/>
<path d="M435.445 263.971V224.28C435.445 215.672 442.618 208.977 450.747 208.977H614.773C623.38 208.977 630.075 216.15 630.075 224.28V263.971C630.075 272.579 622.902 279.273 614.773 279.273H450.747C442.618 279.273 435.445 272.579 435.445 263.971Z" fill="#191919"/>
<path d="M630.31 247.021V241.76L435.68 241.76V247.021L630.31 247.021Z" fill="black"/>
<path d="M630.403 258.113V256.2L435.773 256.2V258.113L630.403 258.113Z" fill="black"/>
<path d="M630.487 266.326V264.413L435.857 264.413V266.326L630.487 266.326Z" fill="black"/>
<path d="M630.518 224.276V222.364L435.887 222.364V224.276L630.518 224.276Z" fill="black"/>
<path d="M630.602 232.49V230.577L435.971 230.577V232.49L630.602 232.49Z" fill="black"/>
<path d="M630.075 265.406C629.118 265.406 628.64 265.406 627.684 265.406H463.659C455.051 265.406 448.356 258.232 448.356 250.103V210.412C448.356 209.933 448.356 209.455 448.356 208.977C440.705 209.933 434.966 216.628 434.966 224.28V263.971C434.966 272.579 442.139 279.273 450.269 279.273H614.294C622.902 279.273 629.597 273.057 630.075 265.406Z" fill="#191919"/>
<path d="M598.035 279.273H467.962V288.837H598.035V279.273Z" fill="#625757"/>
<path d="M573.646 288.837H491.873V310.356H573.646V288.837Z" fill="#3D3D3D"/>
<path d="M573.646 288.837H491.873V310.356H573.646L503.35 304.618V298.401L573.646 288.837Z" fill="#2C2C2C"/>
<path d="M653.507 537.027H357.496V496.38L343.628 482.99V309.879H667.375V482.99L653.507 496.38V537.027Z" fill="#FFC444"/>
<path d="M667.375 482.99H343.628V496.38H667.375V482.99Z" fill="#3D3D3D"/>
<path d="M533 64.0796H430.664V80.8168H533V64.0796Z" fill="#3D3D3D"/>
<path d="M410.578 65.5144H367.061V381.131H410.578V65.5144Z" fill="#FFC444"/>
<path d="M459.355 56.9062H353.193V88.468H459.355V56.9062Z" fill="#FFC444"/>
<path d="M524.799 6.73306V169.323H541.536V6.73306H524.799Z" fill="#3D3D3D"/>
<path d="M528.126 46.2902V208.881H537.69V46.2902H528.126Z" fill="#3D3D3D"/>
<path d="M549.257 39.6914H517.217V116.205H549.257V39.6914Z" fill="#FFC444"/>
<path d="M505.74 208.977L528.216 197.5H537.78V208.977H505.74Z" fill="#3D3D3D"/>
<path d="M544.475 0H521.999V15.3026H544.475V0Z" fill="#9A9393"/>
<path d="M517.218 56.9062H505.741V86.5551H517.218V56.9062Z" fill="#625757"/>
<path d="M410.578 88.9473L378.06 100.424V296.967L410.578 310.357H367.061V88.9473H410.578Z" fill="#DFAC3C"/>
<path d="M653.506 496.38H357.496V537.027H653.506V496.38Z" fill="#DFAC3C"/>
<path d="M653.506 496.38H357.496V518.856L653.506 503.553V496.38Z" fill="#DFAC3C"/>
</svg>
